<?xml version="1.0" standalone="no"?>
<!DOCTYPE svg PUBLIC "-//W3C//DTD SVG 1.1//EN" "http://www.w3.org/Graphics/SVG/1.1/DTD/svg11.dtd" >
<svg>
<metadata>
Created by FontForge 20120731 at Thu Jan 18 12:49:57 2018
 By www-data
Copyright(c) Beijing Founder Electronics Co.,Ltd.2016
</metadata>
<defs>
<font id="FZYOUHS_510M--GB1-0" horiz-adv-x="1000" >
  <font-face 
    font-family="FZYouHeiS 510M"
    font-weight="550"
    font-stretch="normal"
    units-per-em="1000"
    panose-1="2 0 0 0 0 0 0 0 0 0"
    ascent="800"
    descent="-200"
    x-height="498"
    cap-height="714"
    bbox="-6 -227 991 829"
    underline-thickness="50"
    underline-position="-162"
    unicode-range="U+0025-FF1F"
  />
<missing-glyph 
d="M93 220h-79q-2 83 -7 249q-5 165 -7 248h107q-2 -83 -7 -248q-5 -166 -7 -249zM104 0h-101v105h101v-105z" />
    <glyph glyph-name=".notdef" 
d="M93 220h-79q-2 83 -7 249q-5 165 -7 248h107q-2 -83 -7 -248q-5 -166 -7 -249zM104 0h-101v105h101v-105z" />
    <glyph glyph-name="percent" unicode="%" horiz-adv-x="821" 
d="M187 725q156 -9 163 -206q-6 -198 -163 -207q-155 7 -160 207q6 197 160 206zM187 649q-77 1 -77 -130q-1 -133 77 -131q80 0 80 131q-1 129 -80 130zM247 -10h-78l406 735h78zM633 403q157 -8 163 -207q-6 -198 -163 -206q-155 7 -160 206q6 198 160 207zM633 327
q-77 0 -77 -131q-1 -131 77 -130q80 0 80 130t-80 131z" />
    <glyph glyph-name="ampersand" unicode="&#x26;" horiz-adv-x="614" 
d="M616 0h-101q-35 34 -69 72q-95 -80 -210 -82q-202 8 -211 199q-2 122 142 208q-66 93 -64 165q8 155 173 163q156 -7 163 -157q3 -116 -153 -197q74 -99 154 -184q47 81 64 196h76q-21 -152 -86 -255q70 -77 122 -128zM246 69q83 2 146 61q-115 120 -174 203
q-105 -60 -104 -144q4 -116 132 -120zM188 564q-2 -49 53 -129q113 56 112 133q-3 79 -79 82q-83 -3 -86 -86z" />
    <glyph glyph-name="plus" unicode="+" horiz-adv-x="517" 
d="M212 583h93v-176h178v-95h-178v-176h-93v176h-176v95h176v176z" />
    <glyph glyph-name="hyphen" unicode="-" horiz-adv-x="517" 
d="M481 407v-95h-445v95h445z" />
    <glyph glyph-name="period" unicode="." horiz-adv-x="205" 
d="M154 0h-101v105h101v-105z" />
    <glyph glyph-name="slash" unicode="/" horiz-adv-x="351" 
d="M75 -10h-81l280 735h82z" />
    <glyph glyph-name="zero" unicode="0" horiz-adv-x="534" 
d="M267 725q226 -6 230 -367q-4 -361 -230 -368q-225 6 -230 368q4 360 230 367zM267 630q-129 -1 -129 -272q-1 -275 129 -273q128 1 128 273t-128 272z" />
    <glyph glyph-name="one" unicode="1" horiz-adv-x="509" 
d="M217 0v595l-130 -59v96l182 82h50v-714h-102z" />
    <glyph glyph-name="two" unicode="2" horiz-adv-x="534" 
d="M466 0h-421v63q101 141 223 279q91 101 89 191q-1 99 -109 100q-74 -2 -158 -52q-7 22 -17 65q-3 15 -5 23q94 60 191 59q194 -6 199 -195q0 -122 -113 -249q-90 -100 -157 -189h278v-95z" />
    <glyph glyph-name="three" unicode="3" horiz-adv-x="534" 
d="M48 39l26 85q82 -37 145 -39q140 1 141 135q-6 108 -131 114h-69v95h70q113 2 115 114q0 90 -105 90q-64 0 -139 -36l-25 87q96 44 173 44q191 -6 197 -179q0 -102 -105 -167q120 -58 120 -169q-11 -213 -229 -223q-86 1 -184 49z" />
    <glyph glyph-name="four" unicode="4" horiz-adv-x="534" 
d="M427 0h-102v158h-300v86l294 473h108v-464h75v-95h-75v-158zM130 253h195v318z" />
    <glyph glyph-name="five" unicode="5" horiz-adv-x="534" 
d="M445 717v-95h-259l-8 -167q27 6 60 6q225 -7 232 -233q-6 -231 -251 -238q-77 0 -161 39l24 85q79 -29 137 -29q146 5 150 143q0 138 -144 138q-69 0 -140 -18l19 369h341z" />
    <glyph glyph-name="six" unicode="6" horiz-adv-x="534" 
d="M432 728l12 -91q-240 -8 -300 -249q78 68 154 69q189 -16 203 -228q-14 -225 -224 -239q-224 9 -231 300q17 418 386 438zM277 85q117 6 122 144q-2 131 -123 133q-84 -5 -129 -83q3 -192 130 -194z" />
    <glyph glyph-name="seven" unicode="7" horiz-adv-x="534" 
d="M55 717h418v-60l-251 -657h-108l256 622h-315v95z" />
    <glyph glyph-name="eight" unicode="8" horiz-adv-x="534" 
d="M42 191q-1 113 136 190q-116 70 -115 170q13 167 204 177q193 -9 204 -178q-1 -103 -116 -170q143 -71 138 -189q-15 -185 -226 -201q-212 13 -225 201zM265 81q123 6 130 112q1 94 -143 145q-110 -53 -113 -146q5 -105 126 -111zM267 641q-102 -5 -109 -90
q2 -78 121 -130q95 53 97 129q-5 87 -109 91z" />
    <glyph glyph-name="nine" unicode="9" horiz-adv-x="534" 
d="M98 -10l-14 95q246 4 300 241q-76 -63 -150 -65q-190 10 -199 230q12 226 222 237q220 -6 225 -301q-12 -422 -384 -437zM257 633q-113 -8 -121 -142q2 -133 121 -135q84 4 124 83q0 191 -124 194z" />
    <glyph glyph-name="colon" unicode=":" horiz-adv-x="205" 
d="M154 0h-101v105h101v-105zM154 351h-101v106h101v-106z" />
    <glyph glyph-name="A" unicode="A" horiz-adv-x="600" 
d="M483 0l-61 205h-244l-60 -205h-106l237 714h103l237 -714h-106zM300 626l-96 -326h192z" />
    <glyph glyph-name="B" unicode="B" horiz-adv-x="549" 
d="M72 16v683q94 25 174 26q235 -4 240 -192q-4 -121 -103 -157q129 -43 129 -172q-10 -212 -266 -214q-84 2 -174 26zM173 624v-202h76q142 -5 136 106q6 110 -133 106q-43 -1 -79 -10zM173 331v-241q33 -8 79 -9q165 -5 159 126q2 125 -162 124h-76z" />
    <glyph glyph-name="C" unicode="C" horiz-adv-x="581" 
d="M535 107l24 -87q-76 -30 -162 -30q-348 15 -362 368q17 351 355 367q93 1 161 -29l-24 -88q-60 22 -135 22q-244 -12 -256 -272q9 -262 263 -273q65 0 136 22z" />
    <glyph glyph-name="D" unicode="D" horiz-adv-x="682" 
d="M72 13v688q87 24 192 24q371 -12 384 -367q-10 -358 -384 -368q-101 1 -192 23zM173 618v-522q46 -10 95 -11q273 7 279 273q-7 264 -280 272q-49 0 -94 -12z" />
    <glyph glyph-name="E" unicode="E" horiz-adv-x="489" 
d="M390 424v-95h-217v-234h286v-95h-386v714h375v-95h-275v-195h217z" />
    <glyph glyph-name="F" unicode="F" horiz-adv-x="486" 
d="M73 0v714h370v-95h-270v-195h217v-95h-217v-329h-100z" />
    <glyph glyph-name="G" unicode="G" horiz-adv-x="662" 
d="M611 383v-343q-99 -47 -207 -50q-355 15 -369 368q16 352 375 367q95 0 174 -32l-25 -88q-70 25 -150 25q-261 -11 -273 -272q9 -263 267 -273q55 1 107 17v186h-108v95h209z" />
    <glyph glyph-name="H" unicode="H" horiz-adv-x="668" 
d="M72 714h101v-290h322v290h101v-714h-101v329h-322v-329h-101v714z" />
    <glyph glyph-name="I" unicode="I" horiz-adv-x="278" 
d="M88 714h101v-714h-101v714z" />
    <glyph glyph-name="J" unicode="J" horiz-adv-x="393" 
d="M219 198v516h101v-522q1 -204 -196 -202q-47 1 -106 17l16 88q41 -10 82 -10q109 -8 103 113z" />
    <glyph glyph-name="K" unicode="K" horiz-adv-x="572" 
d="M174 0h-101v714h101v-295l244 295h122l-282 -335l299 -379h-128l-255 338v-338z" />
    <glyph glyph-name="L" unicode="L" horiz-adv-x="476" 
d="M73 0v714h100v-619h282v-95h-382z" />
    <glyph glyph-name="O" unicode="O" horiz-adv-x="721" 
d="M361 725q305 -25 325 -367q-19 -344 -325 -368q-309 22 -326 368q20 343 326 367zM361 632q-214 -13 -225 -274q10 -262 225 -275q213 15 224 275q-11 261 -224 274z" />
    <glyph glyph-name="P" unicode="P" horiz-adv-x="551" 
d="M72 0v697q97 27 181 28q258 -1 259 -221q-1 -213 -259 -214q-47 -1 -80 8v-298h-101zM173 618v-226q36 -8 82 -7q159 -2 156 119q3 129 -156 126q-37 0 -82 -12z" />
    <glyph glyph-name="Q" unicode="Q" horiz-adv-x="721" 
d="M708 -59l-15 -96q-45 -3 -92 -3q-249 -4 -290 152q-264 53 -276 364q20 343 326 367q305 -25 325 -367q-12 -305 -271 -363q30 -61 176 -59q51 0 117 5zM361 633q-214 -13 -225 -275q10 -262 225 -275q213 15 224 275q-11 261 -224 275z" />
    <glyph glyph-name="R" unicode="R" horiz-adv-x="562" 
d="M72 0v697q99 27 182 28q253 -1 255 -206q0 -113 -118 -163q67 -44 88 -140q24 -101 57 -216h-105q-8 33 -25 100q-16 67 -25 99q-31 110 -124 113h-84v-312h-101zM173 621v-215h84q153 -1 151 113q3 113 -151 111q-31 -1 -84 -9z" />
    <glyph glyph-name="S" unicode="S" horiz-adv-x="487" 
d="M35 34l24 86q87 -35 150 -35q138 1 140 108q1 86 -137 144q-175 74 -174 210q7 173 223 178q90 0 158 -34l-25 -87q-69 27 -135 26q-115 -3 -120 -80q-9 -71 120 -122q194 -86 191 -235q-8 -196 -237 -203q-85 -1 -178 44z" />
    <glyph glyph-name="T" unicode="T" horiz-adv-x="540" 
d="M220 0v619h-205v95h510v-95h-204v-619h-101z" />
    <glyph glyph-name="U" unicode="U" horiz-adv-x="663" 
d="M72 714h101v-423q-1 -210 158 -208q158 1 159 208v423h101v-415q-1 -307 -260 -309q-259 -1 -259 306v418z" />
    <glyph glyph-name="V" unicode="V" horiz-adv-x="594" 
d="M345 0h-95l-236 714h105l178 -602l179 602h105z" />
    <glyph glyph-name="W" unicode="W" horiz-adv-x="871" 
d="M283 0h-92l-181 714h103l126 -567l152 567h89l152 -567l127 567h102l-181 -714h-91l-153 583z" />
    <glyph glyph-name="a" unicode="a" horiz-adv-x="495" 
d="M429 348v-190q0 -64 8 -158h-90l-9 58q-61 -67 -151 -68q-150 6 -157 147q4 161 302 191v19q0 72 -90 72q-61 -1 -139 -33l-31 83q92 39 178 40q176 -3 179 -161zM332 180v61q-198 -24 -205 -104q3 -58 74 -60q113 13 131 103z" />
    <glyph glyph-name="c" unicode="c" horiz-adv-x="436" 
d="M395 98l22 -82q-65 -26 -123 -26q-252 10 -262 260q12 247 257 259q66 -1 122 -27l-22 -82q-51 18 -106 18q-144 -11 -154 -168q7 -160 159 -169q51 0 107 17z" />
    <glyph glyph-name="d" unicode="d" horiz-adv-x="566" 
d="M402 746h98v-571q0 -80 8 -175h-89l-10 59q-59 -70 -153 -69q-217 10 -224 260q10 247 224 259q87 0 146 -60v297zM402 199v102q-9 110 -131 117q-139 -6 -142 -168q3 -166 142 -169q123 7 131 118z" />
    <glyph glyph-name="e" unicode="e" horiz-adv-x="512" 
d="M482 217h-350q18 -133 157 -136q71 0 138 27q4 -14 12 -39q9 -29 13 -45q-72 -34 -163 -34q-248 6 -254 260q14 242 224 259q210 -15 223 -239v-53zM132 304h253q-18 115 -126 118q-105 -4 -127 -118z" />
    <glyph glyph-name="f" unicode="f" horiz-adv-x="317" 
d="M182 0h-97v407h-68v91h68v62q4 161 167 165q46 0 86 -13l-6 -42q-4 -29 -7 -43q-35 6 -67 7q-79 3 -76 -81v-55h110v-91h-110v-407z" />
    <glyph glyph-name="i" unicode="i" horiz-adv-x="234" 
d="M165 0h-97v498h97v-498zM168 616h-103v98h103v-98z" />
    <glyph glyph-name="k" unicode="k" horiz-adv-x="494" 
d="M164 0h-97v746h97v-437l174 189h121l-204 -217l224 -281h-122l-193 252v-252z" />
    <glyph glyph-name="l" unicode="l" horiz-adv-x="238" 
d="M70 0v746h97v-746h-97z" />
    <glyph glyph-name="m" unicode="m" horiz-adv-x="852" 
d="M66 0v330q0 58 -7 168h88l10 -62q56 73 156 73q91 -2 138 -90q65 91 165 90q166 -11 173 -226v-283h-97v283q2 138 -101 135q-108 -10 -116 -135v-283h-97v283q2 138 -98 135q-110 -8 -117 -135v-283h-97z" />
    <glyph glyph-name="n" unicode="n" horiz-adv-x="562" 
d="M67 0v328q-1 72 -8 170h89l9 -63q60 75 167 74q162 -12 171 -226v-283h-97v283q2 138 -109 135q-117 -8 -125 -135v-283h-97z" />
    <glyph glyph-name="o" unicode="o" horiz-adv-x="544" 
d="M271 509q226 -15 239 -259q-13 -246 -239 -260q-227 13 -239 260q12 245 239 259zM271 418q-136 -5 -142 -168q5 -164 142 -169q138 5 142 169q-7 162 -142 168z" />
    <glyph glyph-name="r" unicode="r" horiz-adv-x="339" 
d="M68 0v324q0 60 -7 174h87l8 -64q36 72 104 73q36 0 63 -14q-3 -15 -9 -47q-6 -31 -10 -47q-1 0 -4 1q-30 8 -47 9q-85 -2 -88 -121v-288h-97z" />
    <glyph glyph-name="s" unicode="s" horiz-adv-x="407" 
d="M33 22l25 83q73 -25 121 -25q94 1 93 60q6 44 -92 79q-147 54 -144 155q9 129 179 135q67 -1 132 -28l-20 -83q-72 22 -113 22q-77 -2 -81 -44q-5 -37 95 -74q144 -62 141 -162q-4 -147 -187 -150q-70 0 -149 32z" />
    <glyph glyph-name="u" unicode="u" horiz-adv-x="558" 
d="M491 498v-330q1 -78 7 -168h-90l-9 61q-57 -71 -159 -71q-167 8 -173 213v295h97v-286q-3 -136 100 -131q122 8 130 131v286h97z" />
    <glyph glyph-name="y" unicode="y" horiz-adv-x="491" 
d="M16 498h102l133 -370l122 370h103l-213 -574q-60 -151 -219 -151q-2 15 -7 45q-5 27 -7 40q120 -6 154 92l29 75q-26 62 -77 185q-80 190 -120 288z" />
    <glyph glyph-name="mu" unicode="&#x3bc;" 
d="M717 0h-85l-12 63q-31 -42 -63 -58q-30 -16 -82 -15q-65 2 -95 52v-242h-97v698h98v-284q-1 -136 104 -134q121 7 127 134v284h98v-330q1 -54 7 -168z" />
    <glyph glyph-name="quotedblleft" unicode="&#x201c;" 
d="M569 524v41q1 102 57 185h53q-48 -80 -48 -140q2 -21 24 -23h25v-112h-55q-54 1 -56 49zM759 524v41q1 102 57 185h53q-48 -80 -48 -140q2 -21 24 -23h25v-112h-55q-54 1 -56 49z" />
    <glyph glyph-name="quotedblright" unicode="&#x201d;" 
d="M241 701v-41q-1 -102 -57 -185h-53q48 81 48 140q-2 21 -24 23h-25v112h55q54 -1 56 -49zM431 701v-41q-1 -102 -57 -185h-53q48 81 48 140q-2 21 -24 23h-25v112h55q54 -1 56 -49z" />
    <glyph glyph-name="uni2103" unicode="&#x2103;" 
d="M235 555q66 4 69 68q-4 64 -69 68q-64 -4 -69 -68q3 -64 69 -68zM235 507q-107 8 -115 116q9 108 115 116q107 -8 115 -116q-7 -108 -115 -116zM849 107l24 -87q-76 -30 -162 -30q-348 15 -362 368q17 351 355 367q93 1 161 -29l-24 -88q-60 22 -135 22
q-244 -12 -256 -272q9 -262 263 -273q65 0 136 22z" />
    <glyph glyph-name="uni3001" unicode="&#x3001;" 
d="M303 -36l-166 199l64 54l172 -197z" />
    <glyph glyph-name="uni3002" unicode="&#x3002;" 
d="M249 19q90 7 96 95q-6 90 -96 97q-91 -6 -98 -97q7 -88 98 -95zM249 -39q-144 10 -154 153q12 144 154 155q141 -12 152 -155q-10 -141 -152 -153z" />
    <glyph glyph-name="uni4E00" unicode="&#x4e00;" 
d="M53 332v101h892v-101h-892z" />
    <glyph glyph-name="uni4E07" unicode="&#x4e07;" 
d="M64 641v95h872v-95h-507v-11q-2 -109 -6 -162h406l-15 -380q-6 -168 -166 -169q-44 0 -106 6q-1 51 -24 104q64 -11 113 -11q77 0 79 84l11 274h-307q-34 -313 -260 -483q-40 43 -98 62q247 165 263 498q4 79 6 188h-261z" />
    <glyph glyph-name="uni4E0A" unicode="&#x4e0a;" 
d="M52 -68v95h364v777h106v-300h339v-94h-339v-383h425v-95h-895z" />
    <glyph glyph-name="uni4E0B" unicode="&#x4e0b;" 
d="M64 649v96h869v-96h-401v-754h-106v754h-362zM802 167q-117 126 -269 256l84 53q135 -107 251 -225z" />
    <glyph glyph-name="uni4E0D" unicode="&#x4e0d;" 
d="M81 648v93h844v-93h-335q-33 -91 -81 -170h47v-583h-105v497q-127 -168 -321 -290q-37 46 -93 68q330 197 440 478h-396zM891 98q-152 161 -312 299l83 57q167 -133 293 -270z" />
    <glyph glyph-name="uni4E0E" unicode="&#x4e0e;" 
d="M695 -98q-44 0 -110 8q-4 55 -24 101q74 -12 117 -12q89 -3 91 94l13 258h-575l39 454l103 -7l-11 -116h569v-90h-577l-13 -151h572l-19 -365q-8 -174 -175 -174zM63 123v90h642v-90h-642z" />
    <glyph glyph-name="uni4E13" unicode="&#x4e13;" 
d="M137 598v88h269q21 82 30 130l103 -22q-15 -62 -27 -108h354v-88h-379q-16 -56 -34 -107h485v-89h-516q-23 -61 -41 -101h434v-74q-63 -99 -163 -205q59 -23 108 -45l-25 -95q-247 108 -481 176l47 84q112 -31 253 -82q82 84 134 155h-423v75q23 47 48 112h-253v89h286
q10 29 29 92q3 10 5 15h-243z" />
    <glyph glyph-name="uni4E14" unicode="&#x4e14;" 
d="M46 -68v92h176v730h554v-730h176v-92h-906zM325 180v-156h348v156h-348zM325 421v-154h348v154h-348zM325 663v-154h348v154h-348z" />
    <glyph glyph-name="uni4E16" unicode="&#x4e16;" 
d="M43 439v92h138v248h102v-248h156v271h102v-271h153v271h102v-271h159v-92h-159v-292h-357v292h-156v-414h627v-93h-729v507h-138zM541 239h153v200h-153v-200z" />
    <glyph glyph-name="uni4E1A" unicode="&#x4e1a;" 
d="M47 -62v93h286v771h102v-771h129v771h102v-550q102 189 151 350l94 -43q-64 -189 -158 -356q-43 23 -87 30v-202h286v-93h-905zM233 203q-79 214 -158 372l101 23q83 -164 146 -342z" />
    <glyph glyph-name="uni4E24" unicode="&#x4e24;" 
d="M73 666v88h853v-88h-260q-2 -85 -4 -133h212v-487q0 -144 -133 -144q-40 0 -83 5q-2 47 -25 94q46 -6 85 -6q61 -2 59 64v89l-60 -48q-43 74 -93 147q-30 -107 -92 -206q-46 24 -95 29q116 150 128 376h-134q-4 -46 -11 -88q57 -60 104 -118l-64 -62q-39 53 -63 80
q-30 -102 -95 -192q-36 20 -79 29v-197h-98v635h217q1 62 1 54v33v46h-270zM223 446v-326q98 119 113 326h-113zM777 446h-120q-3 -48 -10 -92q75 -96 130 -182v274zM439 666q0 -15 -1 -44q-1 -59 -2 -89h133q2 61 2 133h-132z" />
    <glyph glyph-name="uni4E2A" unicode="&#x4e2a;" 
d="M910 321q-264 123 -412 333q-140 -217 -395 -353q-33 44 -88 75q333 160 456 443l94 -38q-9 -22 -20 -43q166 -223 442 -324q-44 -34 -77 -93zM445 -105v581h108v-581h-108z" />
    <glyph glyph-name="uni4E2D" unicode="&#x4e2d;" 
d="M446 -105v314h-247v-72h-102v487h349v181h104v-181h350v-487h-101v72h-249v-314h-104zM799 529h-249v-225h249v225zM199 529v-225h247v225h-247z" />
    <glyph glyph-name="uni4E30" unicode="&#x4e30;" 
d="M118 570v92h329v143h104v-143h329v-92h-329v-134h275v-92h-275v-140h393v-93h-393v-216h-104v216h-392v93h392v140h-274v92h274v134h-329z" />
    <glyph glyph-name="uni4E34" unicode="&#x4e34;" 
d="M437 -105v484h470v-484h-89v69h-291v-69h-90zM263 -105v909h91v-349q147 164 200 357l88 -27q-16 -54 -39 -107h330v-83h-370q-55 -103 -127 -183q-44 24 -82 30v-547h-91zM91 29v666h90v-666h-90zM818 296h-103v-249h103v249zM527 296v-249h101v249h-101zM746 382
q-68 76 -159 151l69 50q69 -52 144 -129z" />
    <glyph glyph-name="uni4E3A" unicode="&#x4e3a;" 
d="M704 -84q-58 0 -103 5q-3 55 -28 102q66 -9 114 -9q83 -1 87 86l16 375h-286q-61 -386 -362 -578q-43 47 -95 68q297 173 353 510h-302v90h315q13 113 16 243l104 -7q-6 -123 -17 -236h379l-19 -484q-7 -166 -172 -165zM631 136q-68 98 -144 178l83 47q65 -66 133 -159z
M295 587q-62 78 -127 133l80 51q64 -54 119 -122z" />
    <glyph glyph-name="uni4E3B" unicode="&#x4e3b;" 
d="M94 545v92h395q-35 51 -121 146l110 32q80 -81 120 -144l-70 -34h376v-92h-352v-205h290v-92h-290v-219h391v-93h-889v93h392v219h-291v92h291v205h-352z" />
    <glyph glyph-name="uni4E45" unicode="&#x4e45;" 
d="M151 -105q-41 48 -96 76q439 177 557 587h-228q-82 -161 -179 -254q-44 30 -102 41q188 183 267 461l96 -35q-15 -59 -40 -119h299v-82q-39 -151 -113 -274q131 -212 362 -299q-59 -33 -97 -90q-203 104 -323 302q-155 -204 -403 -314z" />
    <glyph glyph-name="uni4E4B" unicode="&#x4e4b;" 
d="M115 -100l-76 71q61 99 109 153q35 40 77 41q11 0 23 -3q269 173 457 348h-599v94h389q-72 89 -151 161l107 47q78 -70 147 -156l-74 -52h338v-79q-193 -215 -523 -424q84 -63 242 -67q172 -9 384 5q-31 -55 -33 -109q-245 -2 -363 6q-209 2 -316 108q-17 15 -26 14
q-9 0 -24 -18q-42 -54 -88 -140z" />
    <glyph glyph-name="uni4E4E" unicode="&#x4e4e;" 
d="M45 249v92h412v297q-157 -10 -312 -12q-17 55 -45 93q450 2 711 56l62 -89q-132 -25 -312 -40v-305h392v-92h-392v-196q3 -151 -149 -148q-42 0 -91 7q-8 60 -29 100q59 -8 98 -8q68 -1 67 66v179h-412zM695 363q-34 34 -79 49q102 86 176 193l76 -51q-82 -114 -173 -191
zM325 364q-87 97 -183 174l80 52q91 -75 163 -154z" />
    <glyph glyph-name="uni4E5F" unicode="&#x4e5f;" 
d="M365 -68q-165 -1 -164 151v321l-135 -33l-25 89l160 39v227h101v-203l169 41v241h101v-216l277 68l-10 -349q-4 -135 -121 -134q-29 0 -64 5q-3 43 -24 92q30 -6 60 -6q50 -2 50 57l6 215l-174 -43v-394h-101v370l-169 -42v-331q2 -66 69 -68h379q78 -2 101 80
q9 26 18 78q40 -45 89 -63q-7 -35 -17 -69q-33 -129 -187 -123h-389z" />
    <glyph glyph-name="uni4E60" unicode="&#x4e60;" 
d="M680 -83q-55 0 -118 6q-1 54 -26 106q79 -12 123 -12q95 -2 97 104l13 505h-653v95h759l-17 -612q-2 -194 -178 -192zM134 18l-59 88q285 103 577 255l54 -79q-276 -146 -572 -264zM419 318q-90 100 -205 189l81 62q117 -92 192 -174z" />
    <glyph glyph-name="uni4E66" unicode="&#x4e66;" 
d="M878 531q-26 25 -96 87l-15 -273h150l-12 -240q-6 -152 -158 -150q-40 0 -93 5q-3 56 -23 99q69 -9 99 -9q74 -2 76 71l7 135h-320v-361h-101v361h-323v89h323v198h-267v90h267v172h101v-172h271q-74 62 -128 102l76 57q105 -74 219 -179zM678 543h-185v-198h174z" />
    <glyph glyph-name="uni4E70" unicode="&#x4e70;" 
d="M59 185v90h436q1 1 1 2q1 2 1 3q34 118 32 351l101 -8q-2 -223 -33 -347v-1h342v-90h-372q-97 -220 -448 -290q-23 53 -63 90q310 55 399 200h-396zM847 494q-43 13 -96 14l54 155h-707v89h808v-82zM879 -107q-164 105 -320 177l62 69q156 -68 295 -157zM339 293
q-120 74 -221 120l56 69q106 -48 205 -111zM424 442q-111 73 -210 120l53 63q108 -51 195 -108z" />
    <glyph glyph-name="uni4E86" unicode="&#x4e86;" 
d="M414 -91q-39 0 -93 6q-7 59 -30 104q70 -9 109 -9q70 -2 68 69v386q138 81 252 180h-598v94h754v-84q-134 -130 -304 -241v-358q2 -149 -158 -147z" />
    <glyph glyph-name="uni4E88" unicode="&#x4e88;" 
d="M419 -97q-49 0 -92 6q-5 60 -26 105q60 -11 98 -11q69 -1 68 66v277h-390v93h441q-135 86 -233 138l71 61q69 -36 151 -87q104 65 172 119h-509v90h667v-82q-117 -99 -246 -181q12 -8 33 -23q8 -5 12 -8l-23 -27h315v-81l-79 -171q-42 16 -99 17l67 142h-248v-293
q1 -151 -150 -150z" />
    <glyph glyph-name="uni4E8B" unicode="&#x4e8b;" 
d="M69 666v72h380v67h96v-67h384v-72h-384v-51h276v-185h-276v-50h311v-124h101v-72h-101v-165h-93v40h-218v-32q3 -130 -135 -127q-35 0 -81 7q-4 48 -23 91q54 -9 88 -9q59 -4 55 59v11h-319v71h319v54h-405v72h405v54h-313v70h313v50h-275v185h275v51h-380zM763 310h-218
v-54h218v54zM545 184v-54h218v54h-218zM730 553h-185v-61h185v61zM265 492h184v61h-184v-61z" />
    <glyph glyph-name="uni4E8E" unicode="&#x4e8e;" 
d="M134 656v95h730v-95h-295v-228h386v-96h-386v-272q3 -157 -156 -154q-30 0 -88 6q-6 63 -28 106q60 -11 98 -11q70 -2 68 71v254h-419v96h419v228h-329z" />
    <glyph glyph-name="uni4E91" unicode="&#x4e91;" 
d="M59 364v90h880v-90h-412q-95 -169 -209 -313l375 17q-70 82 -125 142l88 45q134 -139 238 -270l-70 -79q-27 36 -61 77l-461 -25q-52 -3 -118 -24l-52 98q50 14 85 55q93 108 192 277h-350zM181 639v90h637v-90h-637z" />
    <glyph glyph-name="uni4E92" unicode="&#x4e92;" 
d="M96 657v90h804v-90h-488l-27 -144h397l-53 -491h221v-90h-900v90h576l16 150h-424l89 485h-211zM669 425h-300l-30 -165h312z" />
    <glyph glyph-name="uni4E94" unicode="&#x4e94;" 
d="M108 654v93h781v-93h-384l-38 -225h321v-404h162v-93h-901v93h246l52 314h-173v90h188l37 225h-291zM687 339h-235l-53 -314h288v314z" />
    <glyph glyph-name="uni4E9A" unicode="&#x4e9a;" 
d="M102 653v90h795v-90h-238v-433q88 140 147 293l92 -43q-71 -171 -155 -295q-40 23 -84 33v-186h291v-90h-901v90h289v631h-236zM438 653v-631h122v631h-122zM243 175q-69 161 -153 305l97 29q87 -144 139 -278z" />
    <glyph glyph-name="uni4E9B" unicode="&#x4e9b;" 
d="M74 245l-39 87l89 19v346h95v-326l94 21v412h95v-155h121v-83h-121v-154l104 23l34 -73zM709 291q-129 -4 -124 118v395h96v-186q114 55 189 110l66 -63q-129 -85 -255 -136v-102q-2 -51 50 -49h64q57 -3 71 50q2 7 5 19q7 29 11 49q39 -39 78 -53q-2 -8 -6 -23
q-2 -12 -11 -42q-29 -88 -135 -87h-99zM64 -74v87h870v-87h-870zM180 124v85h637v-85h-637z" />
    <glyph glyph-name="uni4EA4" unicode="&#x4ea4;" 
d="M880 -98q-219 49 -373 167q-140 -117 -380 -175q-28 47 -76 82q250 58 382 159q-93 95 -157 227l88 38q55 -118 140 -199q75 83 121 214l89 -38q-49 -139 -135 -238q141 -98 378 -137q-54 -41 -77 -100zM85 573v89h400q-43 61 -100 120l99 33q56 -56 100 -119l-67 -34
h400v-89h-832zM168 285q-39 42 -83 62q143 88 251 223l79 -52q-101 -133 -247 -233zM836 292q-134 128 -260 216l75 59q120 -80 239 -190z" />
    <glyph glyph-name="uni4EA7" unicode="&#x4ea7;" 
d="M124 -112q-45 42 -95 58q75 84 94 179q12 51 14 121q4 69 -1 179h227q-44 80 -93 145l95 30q51 -64 92 -142l-69 -33h179q74 105 107 180l99 -31q-34 -71 -88 -149h253v-90h-696q12 -304 -118 -447zM81 609v90h387q-19 28 -58 80q-3 3 -4 5l112 27q42 -50 80 -112h337
v-90h-854z" />
    <glyph glyph-name="uni4EAB" unicode="&#x4eab;" 
d="M57 78v78h409v33q99 27 169 62h-458v69h642v-56q-90 -54 -244 -108h367v-78h-376v-53q1 -126 -121 -125q-65 1 -105 6q-2 42 -27 88q49 -10 101 -11q53 -1 52 56v39h-409zM199 373v216h601v-216h-601zM78 641v79h374q-25 31 -63 71l113 25q46 -49 80 -96h338v-79h-842z
M297 444h404v75h-404v-75z" />
    <glyph glyph-name="uni4EAE" unicode="&#x4eae;" 
d="M219 392v203h560v-203h-560zM124 -110q-27 48 -67 79q235 23 242 145l5 98h387v-158q-3 -54 50 -51h59q47 -2 59 49q6 23 12 67q34 -34 81 -49q-5 -30 -11 -52q-23 -103 -135 -97h-86q-128 -3 -125 116v97h-197l-7 -50q-13 -156 -267 -194zM90 175v167h819v-166h-100v90
h-619v-91h-100zM87 644v78h365q-27 33 -60 72l113 22q48 -52 76 -94h330v-78h-824zM317 459h363v68h-363v-68z" />
    <glyph glyph-name="uni4EBA" unicode="&#x4eba;" 
d="M888 -86q-276 150 -387 474q-92 -330 -380 -484q-42 49 -99 77q366 173 410 596q4 38 6 91q0 26 1 58v80l111 -9q-2 -138 -11 -225q116 -422 445 -570q-55 -35 -96 -88z" />
    <glyph glyph-name="uni4EC5" unicode="&#x4ec5;" 
d="M895 -91q-147 78 -247 188q-108 -116 -267 -195q-43 50 -81 75q174 84 281 202q-119 165 -167 401l90 38q41 -213 140 -358q103 151 138 378h-398v92h499v-83q-38 -287 -171 -472q104 -110 264 -181q-48 -34 -81 -85zM179 -105v515q-40 -56 -82 -98q-29 37 -77 66
q168 170 248 428l88 -41q-32 -104 -80 -197v-673h-97z" />
    <glyph glyph-name="uni4ECE" unicode="&#x4ece;" 
d="M894 -93q-159 167 -218 409q-56 -251 -236 -418q-41 43 -94 64q250 202 267 593q2 65 2 114q1 45 0 130l100 -2q0 -142 -4 -244q48 -370 274 -569q-54 -30 -91 -77zM442 173q-57 89 -118 166q-46 -248 -214 -421q-39 40 -94 61q218 201 232 558q3 93 4 142q1 57 0 119
l99 -2q0 -155 -7 -294q-1 -19 -3 -37q107 -122 176 -219z" />
    <glyph glyph-name="uni4ED6" unicode="&#x4ed6;" 
d="M547 -71q-143 -2 -141 141v341l-76 -19l-28 84l104 26v239h93v-216l108 27v252h93v-229l205 51l-8 -334q-2 -121 -105 -120q-26 0 -50 3q-3 49 -22 89q21 -4 48 -4q40 -1 39 46l4 206l-111 -28v-373h-93v350l-108 -27v-355q0 -60 62 -61h226q63 -3 81 55q13 37 21 75
q29 -35 77 -56q-5 -21 -17 -62q-1 -2 -1 -3q-33 -100 -147 -98h-254zM181 -104v523q-40 -57 -81 -98q-37 39 -84 56q173 178 253 433l89 -41q-31 -93 -83 -194v-679h-94z" />
    <glyph glyph-name="uni4EE5" unicode="&#x4ee5;" 
d="M905 -87q-102 127 -192 224q-97 -147 -293 -244q-32 40 -86 71q332 143 388 480q26 134 26 335l105 -11q-3 -199 -29 -339q-20 -112 -62 -202q115 -112 213 -228zM154 -58l-57 95q38 38 37 98v599h103v-592l198 152l63 -70l-286 -226q-34 -29 -58 -56zM532 499
q-115 156 -210 251l92 45q106 -110 192 -226z" />
    <glyph glyph-name="uni4EEC" unicode="&#x4eec;" 
d="M785 -97q-43 0 -91 5q-4 55 -25 98q54 -9 96 -9q63 -2 61 64v576h-215v89h310v-683q0 -140 -136 -140zM166 -105v526q-39 -53 -66 -81q-35 42 -75 64q149 166 227 405l84 -47q-27 -88 -73 -178v-689h-97zM368 -103v684h97v-684h-97zM523 574q-79 91 -153 156l73 54
q75 -69 138 -142z" />
    <glyph glyph-name="uni4EF6" unicode="&#x4ef6;" 
d="M324 213v88h288v208h-138q-30 -76 -70 -144q-41 24 -95 29q96 150 133 351l92 -31q-13 -60 -30 -118h108v208h100v-208h209v-87h-209v-208h248v-88h-248v-318h-100v318h-288zM169 -104v512q-33 -50 -69 -94q-36 40 -83 60q162 196 224 436l94 -38q-23 -86 -69 -188v-688
h-97z" />
    <glyph glyph-name="uni4EFD" unicode="&#x4efd;" 
d="M902 330q-38 34 -71 71l-11 -341q-5 -149 -148 -148q-26 0 -83 6q-1 47 -24 94q58 -9 90 -9q67 0 70 69l8 254h-146q-4 -301 -222 -432q-38 41 -86 59q216 118 213 373h-76v69q-27 -34 -58 -66q-30 35 -82 57q158 151 213 389l90 -32q-50 -194 -147 -326h386
q-121 143 -163 356l89 29q46 -255 236 -405q-44 -22 -78 -67zM173 -105v511q-38 -45 -74 -80q-28 39 -74 68q173 162 252 415l88 -53q-35 -104 -95 -209v-652h-97z" />
    <glyph glyph-name="uni4F18" unicode="&#x4f18;" 
d="M179 -104v523q-37 -51 -76 -94q-39 38 -84 56q172 185 252 426l88 -43q-34 -98 -84 -191v-622q246 187 251 505h-195v89h196v253h97v-253h302v-89h-303q0 -27 -3 -51h89v-332q-2 -63 50 -61h36q49 -5 63 68q8 34 15 85q37 -39 79 -55q-5 -39 -14 -70q-28 -123 -133 -119
h-61q-128 -2 -127 135v310q-30 -287 -247 -469q-41 35 -95 52v-53h-96zM806 568q-60 79 -137 157l79 42q67 -64 125 -137z" />
    <glyph glyph-name="uni4F1A" unicode="&#x4f1a;" 
d="M101 206v87h793v-87h-401q-63 -93 -145 -184l309 18q-25 29 -74 83q-9 11 -14 16l83 44q107 -107 202 -233l-78 -60q-5 7 -16 22q-8 10 -35 45l-418 -27q-50 -3 -114 -19l-39 93q61 11 102 53q55 59 116 149h-271zM269 392v76q-80 -51 -170 -88q-29 45 -77 76
q315 122 458 366l92 -39q-10 -18 -21 -34q175 -201 430 -266q-45 -34 -71 -90q-255 92 -412 281q-88 -110 -215 -196h444v-86h-458z" />
    <glyph glyph-name="uni4F20" unicode="&#x4f20;" 
d="M376 590v84h180q15 68 25 134l97 -19q-11 -57 -23 -115h254v-84h-274q-14 -54 -29 -106h345v-85h-370q-18 -55 -36 -102h334v-76q-60 -101 -143 -198q5 -3 14 -8q56 -31 81 -47l-42 -84q-160 97 -347 185l63 73q67 -31 148 -74q72 82 112 146h-328v73q22 52 43 112h-153
v85h180q16 52 29 106h-160zM100 298q-35 42 -82 69q169 184 243 445l89 -43q-27 -99 -73 -197v-677h-96v506q-39 -60 -81 -103z" />
    <glyph glyph-name="uni4F4E" unicode="&#x4f4e;" 
d="M860 -90q-62 1 -110 86q-71 125 -99 360h-172v-274l125 85l52 -66l-186 -127q-36 -23 -64 -53l-51 70q33 34 31 106v625q275 6 464 51l56 -78q-80 -19 -180 -32q1 -119 10 -221h196v-86h-187q26 -194 77 -299q22 -44 40 -43q17 0 30 45q9 30 17 76q32 -42 67 -55
q-4 -33 -19 -79q-30 -91 -97 -91zM180 -105v527q-45 -60 -80 -95q-35 37 -84 53q170 177 253 429l89 -40q-29 -90 -84 -196v-678h-94zM479 643v-201h163q-7 97 -9 211q-96 -9 -154 -10zM672 -116q-53 61 -119 115l68 44q53 -43 104 -100z" />
    <glyph glyph-name="uni4F53" unicode="&#x4f53;" 
d="M166 -105v514q-34 -45 -71 -85q-38 44 -80 65q171 180 247 419l88 -44q-38 -108 -89 -205v-422q184 165 264 390h-203v88h241v189h95v-189h260v-88h-222q88 -247 285 -386q-37 -28 -73 -84q-171 143 -253 385l3 -31v-262h156v-86h-156v-168h-95v168h-153v86h153v262l3 27
q-76 -232 -251 -386q-23 33 -54 59v-216h-95z" />
    <glyph glyph-name="uni4F59" unicode="&#x4f59;" 
d="M906 406q-81 27 -154 66v-61h-188v-103h342v-87h-342v-194q1 -127 -129 -126q-22 0 -78 6q-2 48 -23 94q50 -9 81 -9q50 -2 48 54v175h-360v87h360v103h-206v60q-79 -46 -156 -76q-26 41 -76 75q324 125 456 349l94 -37l-21 -36q163 -180 424 -253q-45 -35 -72 -87z
M498 672q-81 -95 -202 -175h411q-123 74 -209 175zM143 -76q-33 34 -91 57q143 89 232 208l81 -53q-90 -119 -222 -212zM868 -77q-130 123 -248 207l79 56q116 -81 225 -182z" />
    <glyph glyph-name="uni4F5C" unicode="&#x4f5c;" 
d="M553 -105v654q-66 -122 -141 -205q-36 28 -93 42q165 180 238 428l90 -41q-18 -60 -45 -124h353v-88h-303v-147h258v-88h-258v-150h285v-87h-285v-194h-99zM190 -105v527q-37 -53 -81 -100q-43 46 -87 67q169 184 251 422l90 -48q-27 -83 -75 -177v-691h-98z" />
    <glyph glyph-name="uni4F60" unicode="&#x4f60;" 
d="M176 -105v520q-41 -54 -74 -87q-34 40 -87 65q165 158 256 417l90 -47q-27 -83 -86 -193v-675h-99zM865 419q-45 12 -95 8l56 136h-301q-43 -82 -103 -157q-41 32 -98 41q138 164 190 361l94 -38q-19 -63 -43 -120h364v-72zM567 -99q-43 0 -86 5q3 50 -24 96q54 -8 82 -9
q56 -3 53 54v425h99v-442q0 -130 -124 -129zM399 22q-46 25 -99 27q103 143 140 290l87 -30q-36 -146 -128 -287zM877 15q-58 151 -135 295l94 20q73 -131 127 -268z" />
    <glyph glyph-name="uni4F73" unicode="&#x4f73;" 
d="M386 152v82h209v109h99v-109h210v-82h-210v-139h263v-82h-628v82h266v139h-209zM395 582v83h200v140h99v-140h201v-83h-201v-126h252v-81h-607v81h256v126h-200zM170 -105v511q-32 -42 -67 -82q-42 44 -81 63q165 177 243 422l88 -46q-38 -109 -88 -204v-664h-95z" />
    <glyph glyph-name="uni4F7F" unicode="&#x4f7f;" 
d="M334 601v82h249v121h93v-121h252v-82h-252v-89h213v-274h-218q-10 -101 -54 -170q35 -15 75 -26q96 -26 280 -38q-33 -42 -44 -94q-158 17 -259 43q-59 16 -113 46q-74 -65 -213 -109q-25 39 -68 72q138 42 202 91q-66 54 -124 134l62 51h-52v274h220v89h-249zM171 -105
v528q-33 -48 -68 -88q-29 34 -81 60q155 171 230 411l88 -38q-30 -91 -76 -185v-688h-93zM453 315h130v2v117h-130v-119zM800 434h-124v-109v-10h124v119zM537 115q33 48 42 123h-160q62 -81 118 -123z" />
    <glyph glyph-name="uni4F8B" unicode="&#x4f8b;" 
d="M307 646v81h330v-81h-154q-6 -65 -18 -127h143v-80q-9 -355 -244 -528q-33 32 -82 54q135 95 191 217q-39 36 -96 76q-15 -29 -31 -55q-31 30 -76 44q101 157 129 399h-92zM157 -105v515q-29 -48 -59 -86q-36 40 -79 62q147 184 199 424l89 -34q-21 -88 -60 -184v-697
h-90zM787 -97q-32 0 -87 6q-1 46 -21 92q56 -9 86 -9q57 -2 55 54v749h92v-766q1 -127 -125 -126zM668 111v555h79v-555h-79zM531 437h-86q-23 -86 -63 -168l49 39q34 -22 70 -51q24 81 30 180z" />
    <glyph glyph-name="uni4F9B" unicode="&#x4f9b;" 
d="M352 512v87h116v199h95v-199h151v199h95v-199h122v-87h-122v-211h147v-88h-633v88h145v211h-116zM171 -105v529q-35 -47 -74 -88q-26 35 -79 61q163 167 241 410l88 -35q-32 -98 -79 -190v-687h-97zM563 512v-211h151v211h-151zM408 -107q-38 36 -89 54q120 102 190 236
l85 -46q-79 -142 -186 -244zM865 -106q-90 138 -188 244l86 45q97 -108 173 -221z" />
    <glyph glyph-name="uni4F9D" unicode="&#x4f9d;" 
d="M472 -113l-44 80q34 31 32 88v186q-58 -69 -128 -127q-29 37 -70 63v-280h-93v516q-42 -55 -74 -86q-34 39 -78 59q161 172 238 424l91 -43q-28 -94 -84 -203v-382q182 142 281 374h-207v90h281q-39 70 -95 139l98 26q56 -70 90 -137l-60 -28h289v-90h-296
q-38 -99 -92 -188v-326l128 71l52 -75l-204 -114q-30 -16 -55 -37zM910 -52q-220 157 -306 497l79 42q21 -88 53 -165q77 66 131 136l73 -53q-75 -91 -166 -161q82 -150 211 -225q-45 -27 -75 -71z" />
    <glyph glyph-name="uni4FA7" unicode="&#x4fa7;" 
d="M310 132v601h326v-584h-81v504h-165v-521h-80zM154 -105v540q-35 -54 -68 -91q-30 35 -76 57q149 179 213 412l85 -35q-25 -86 -66 -178v-705h-88zM794 -95q-37 0 -79 7q-3 52 -20 90q51 -8 81 -8q56 -2 54 60v742h89v-755q0 -136 -125 -136zM315 -88q-30 35 -71 54
q205 105 194 333v284h70v-296q0 -111 -30 -189l48 36q75 -55 147 -123l-46 -70q-71 74 -156 139q-42 -98 -156 -168zM693 117v562h78v-562h-78z" />
    <glyph glyph-name="uni4FBF" unicode="&#x4fbf;" 
d="M932 -81q-162 11 -253 29q-75 15 -135 42q-73 -54 -202 -96q-25 45 -71 73q122 33 188 72q-63 45 -113 107l55 55h-28v393h218v74h-244v81h586v-81h-250v-74h217v-393h-229q-14 -83 -59 -143q41 -13 84 -21q114 -22 277 -23q-29 -42 -41 -95zM169 -105v518
q-43 -65 -68 -96q-32 39 -80 60q162 195 221 435l89 -36q-29 -105 -70 -194v-687h-92zM683 343q0 -35 -2 -65h132v85h-130v-20zM461 278h128q2 26 2 56v29h-130v-85zM461 517v-84h130v84h-130zM813 517h-130v-84h130v84zM527 96q36 40 52 105h-171q52 -67 119 -105z" />
    <glyph glyph-name="uni4FDD" unicode="&#x4fdd;" 
d="M402 446v315h471v-315h-190v-100h260v-84h-213q86 -125 248 -213q-44 -23 -78 -70q-134 87 -221 234l4 -20v-298h-93v298l2 16q-87 -145 -234 -234q-26 32 -78 59q172 97 263 228h-212v84h259v100h-188zM180 -105v529q-40 -56 -82 -100q-35 38 -83 53q175 190 250 433
l88 -40q-32 -98 -80 -192v-683h-93zM495 531h284v145h-284v-145z" />
    <glyph glyph-name="uni4FE1" unicode="&#x4fe1;" 
d="M374 -105v337h531v-337h-97v52h-338v-52h-96zM174 -105v520q-42 -62 -73 -99q-33 40 -79 66q154 181 222 428l92 -39q-28 -93 -67 -181v-695h-95zM326 606v87h274q-23 50 -50 92l104 23q30 -49 60 -115h240v-87h-628zM381 304v81h519v-81h-519zM381 455v81h519v-81h-519z
M470 145v-111h338v111h-338z" />
    <glyph glyph-name="uni4FEE" unicode="&#x4fee;" 
d="M930 346q-132 36 -241 97q-105 -67 -248 -104q-19 37 -48 65v-358h-87v578h87v-207q129 29 219 78q-44 33 -80 72q-22 -26 -57 -57q-34 29 -75 41q132 119 187 261l77 -34q-12 -30 -27 -58h253v-64q-46 -89 -126 -158q93 -44 216 -68q-33 -37 -50 -84zM150 -105v518
q-35 -51 -62 -84q-34 42 -71 66q145 171 215 414l83 -39q-28 -96 -73 -191v-684h-92zM474 -111q-23 43 -65 76q299 55 478 196l65 -59q-191 -160 -478 -213zM504 51q-23 42 -61 72q236 54 367 161l64 -57q-155 -120 -370 -176zM500 206q-19 37 -59 70q197 42 290 121l66 -54
q-134 -99 -297 -137zM787 647h-193q-2 -3 -7 -10q-4 -7 -7 -11q46 -47 106 -85q64 50 101 106z" />
    <glyph glyph-name="uni500D" unicode="&#x500d;" 
d="M394 -103v372h485v-372h-96v60h-293v-60h-96zM176 -104v521q-38 -53 -79 -94q-34 39 -79 59q163 180 238 428l93 -43q-31 -94 -76 -187v-684h-97zM321 344v84h193q-42 72 -91 136l85 35q49 -64 95 -141l-50 -30h114q56 82 96 176l86 -34q-33 -72 -81 -142h191v-84h-638z
M365 606v84h243q-35 45 -76 90l93 34q46 -45 90 -107l-34 -17h233v-84h-549zM490 187v-148h293v148h-293z" />
    <glyph glyph-name="uni5029" unicode="&#x5029;" 
d="M385 -105v464h478v-343q0 -115 -114 -115q-33 0 -68 5q-1 36 -23 79q42 -6 69 -6q43 -1 42 47v16h-290v-147h-94zM351 662v71h225v72h95v-72h229v-71h-229v-55h198v-70h-198v-54h281v-72h-650v72h274v54h-191v70h191v55h-225zM167 -105v543q-44 -66 -75 -97
q-32 37 -77 58q149 163 226 414l86 -34q-24 -80 -66 -171v-713h-94zM479 290v-57h290v57h-290zM479 166v-57h290v57h-290z" />
    <glyph glyph-name="uni505C" unicode="&#x505c;" 
d="M398 124v74h444v65h-445v-88h-93v162h628v-162h-89v-51h-162v-103q1 -121 -127 -120q-41 0 -70 6q-3 46 -25 88q43 -9 74 -9q57 -2 55 51v87h-190zM160 -105v516q-38 -59 -64 -90q-34 39 -79 62q151 178 217 428l88 -42q-26 -93 -70 -189v-685h-92zM399 384v207h438v-207
h-438zM330 639v76h248q-25 36 -60 76l103 23q47 -52 76 -99h207v-76h-574zM490 454h256v68h-256v-68z" />
    <glyph glyph-name="uni50A8" unicode="&#x50a8;" 
d="M525 599v78h106v127h86v-127h102v-73q33 52 60 110l73 -38q-46 -99 -109 -181h117v-78h-183q-36 -40 -77 -76h205v-446h-86v48h-167v-48h-86v343q-33 -22 -68 -43q-24 37 -66 58q130 72 229 164h-176v78h146v104h-106zM156 -105v540q-37 -56 -67 -89q-34 39 -75 57
q148 175 217 406l83 -37q-22 -74 -69 -175v-702h-89zM369 -67l-51 66q30 31 28 86v341h-74v85h159v-419l70 56l45 -57l-133 -114q-27 -21 -44 -44zM412 561q-46 81 -105 154l80 32q56 -67 94 -134zM652 105v-86h167v86h-167zM652 264v-85h167v85h-167zM737 495q42 49 78 104
h-98v-104h20z" />
    <glyph glyph-name="uni50CF" unicode="&#x50cf;" 
d="M372 374v154q-3 -2 -9 -5q-1 -2 -2 -2q-29 34 -73 51q152 94 227 238l78 -36q-15 -24 -30 -47h263v-56l-75 -81h147v-216h-293q-5 -4 -8 -9q52 -42 82 -99q104 51 161 102l71 -48q-45 -36 -100 -67q43 -150 165 -227q-47 -19 -85 -54q-103 91 -148 245q-18 -9 -38 -18
q15 -55 16 -124q4 -179 -167 -174q-27 0 -56 4q-2 46 -24 82q40 -7 67 -7q93 -5 89 99q0 10 -2 29q2 -13 0 3q-114 -103 -293 -166q-18 33 -61 62q197 56 339 182q-7 23 -18 44q-97 -87 -256 -143q-22 35 -61 58q170 44 280 138q-11 13 -25 25q-75 -52 -190 -93
q-27 41 -60 60q131 37 210 96h-121zM168 -105v516q-34 -54 -69 -97q-32 38 -79 59q151 178 221 437l89 -38q-28 -93 -72 -193v-684h-90zM513 659q-35 -42 -66 -69h194l65 69h-193zM810 521h-129q-9 -41 -28 -77h157v77zM460 444h102q24 35 35 77h-137v-77z" />
    <glyph glyph-name="uni5145" unicode="&#x5145;" 
d="M70 593v88h398q-40 54 -87 105l108 27q51 -53 99 -123l-22 -9h362v-88h-418q-89 -106 -186 -196l347 11q-53 48 -107 93l75 51q121 -96 237 -217l-60 -73l-60 63l-103 -4v-250q1 -56 50 -57h86q53 -4 65 61q11 42 15 76q34 -32 84 -51q-8 -44 -14 -62q-26 -122 -137 -118
h-118q-127 -1 -126 137v261l-119 -4l-1 -30q2 -301 -329 -387q-20 46 -65 86q301 67 298 303l1 25l-83 -2q-49 -1 -88 -12l-36 84q47 9 88 43q78 72 163 169h-317z" />
    <glyph glyph-name="uni5148" unicode="&#x5148;" 
d="M184 441q-41 31 -102 38q123 129 173 304l93 -41q-19 -60 -37 -99h148v162h101v-162h288v-86h-288v-148h374v-88h-271v-250q-1 -54 50 -53h67q53 -3 66 60q11 44 17 82q42 -40 84 -51q-7 -41 -15 -67q-30 -120 -139 -118h-93q-138 -2 -136 132v265h-137
q11 -329 -318 -428q-27 54 -67 86q297 68 286 342h-264v88h395v148h-192q-39 -66 -83 -116z" />
    <glyph glyph-name="uni5149" unicode="&#x5149;" 
d="M61 353v88h393v364h101v-364h383v-88h-273v-281q-1 -55 51 -54h67q51 -2 66 60q10 37 17 82q36 -37 84 -51q-6 -34 -15 -67q-31 -120 -139 -118h-94q-136 -1 -135 132v297h-143v-9q11 -327 -317 -451q-23 42 -71 78q303 91 290 374v8h-265zM701 476q-33 30 -85 43
q105 113 172 232l85 -43q-71 -120 -172 -232zM308 481q-73 112 -174 225l86 37q80 -87 159 -199z" />
    <glyph glyph-name="uni5165" unicode="&#x5165;" 
d="M880 -81q-233 161 -370 491q-122 -326 -390 -498q-44 44 -101 66q330 199 437 580q-30 98 -177 152l70 75q153 -51 198 -186q149 -440 435 -601q-58 -27 -102 -79z" />
    <glyph glyph-name="uni5168" unicode="&#x5168;" 
d="M226 378v60q-65 -38 -130 -65q-26 38 -76 75q315 132 460 377l89 -40q-1 -2 -4 -7q-10 -20 -17 -30q173 -193 436 -274q-45 -39 -72 -89q-73 30 -139 68v-75h-225v-134h256v-84h-256v-147h353v-87h-803v87h352v147h-256v84h256v134h-224zM499 676q-95 -123 -234 -213h491
q-159 95 -257 213z" />
    <glyph glyph-name="uni5173" unicode="&#x5173;" 
d="M137 515v90h216q-50 64 -139 154l90 45q86 -86 138 -157l-59 -42h154q94 100 156 202l92 -45q-54 -78 -127 -157h202v-90h-312q-2 -108 -5 -148h366v-90h-349q105 -218 391 -285q-43 -39 -73 -92q-263 73 -378 298q-77 -205 -370 -305q-32 48 -80 85q319 90 377 299h-338
v90h352q5 67 6 148h-310z" />
    <glyph glyph-name="uni5174" unicode="&#x5174;" 
d="M55 279v93h520q131 189 215 383l94 -52q-84 -170 -196 -331h257v-93h-890zM157 -104q-41 40 -89 66q167 111 277 263l87 -52q-117 -161 -275 -277zM858 -103q-137 149 -288 273l82 58q142 -114 268 -245zM288 419q-84 137 -182 262l95 38q86 -107 165 -240zM493 490
q-56 156 -124 284l102 20q61 -121 112 -261z" />
    <glyph glyph-name="uni5175" unicode="&#x5175;" 
d="M49 179v87h178v478q324 1 553 45l59 -82q-208 -40 -511 -48v-135h547v-87h-156v-171h232v-87h-902zM328 437v-171h290v171h-290zM157 -109q-42 46 -84 68q162 76 266 190l82 -59q-123 -121 -264 -199zM868 -110q-149 114 -287 192l70 66q133 -73 263 -169z" />
    <glyph glyph-name="uni5176" unicode="&#x5176;" 
d="M109 618v81h136v106h99v-106h310v106h99v-106h137v-81h-137v-422h201v-82h-326q149 -63 267 -140l-34 -85q-142 91 -306 166l63 59h-242l67 -57q-132 -107 -285 -171q-30 43 -76 69q162 63 285 159h-323v82h201v422h-136zM344 287v-91h310v91h-310zM344 618v-90h310v90
h-310zM344 452v-89h310v89h-310z" />
    <glyph glyph-name="uni5177" unicode="&#x5177;" 
d="M44 94v82h159v592h592v-592h159v-82h-283q139 -61 235 -118l-39 -87q-152 90 -297 153l53 52h-262l67 -50q-114 -93 -271 -153q-36 44 -78 71q156 53 264 132h-299zM301 250v-74h395v74h-395zM301 542v-73h395v73h-395zM301 396v-73h395v73h-395zM301 688v-72h395v72
h-395z" />
    <glyph glyph-name="uni5185" unicode="&#x5185;" 
d="M293 85q-28 35 -80 57v-246h-101v757h343q2 84 2 155l99 -6q0 -81 -3 -149h336v-600q1 -152 -145 -151q-33 0 -91 6q-2 51 -27 102q55 -10 97 -10q68 -3 65 70v493h-240q-1 -6 -1 -10q-6 -59 -16 -105q141 -141 239 -267l-66 -77q-97 127 -202 243q-58 -156 -209 -262z
M213 563v-416q223 149 236 412v4h-236z" />
    <glyph glyph-name="uni518C" unicode="&#x518c;" 
d="M46 330v90h107v340h303v-340h93v340h308v-340h97v-90h-97v-305q2 -118 -112 -116q-38 0 -65 3q-5 47 -27 89q44 -6 64 -6q47 -2 45 49v286h-119v-47q4 -234 -88 -389q-40 25 -96 33q51 79 70 158q20 79 20 204v41h-93v-294q2 -121 -119 -119q-28 0 -58 3q-2 45 -24 90
q32 -6 62 -6q45 -1 44 48v278h-112v-27q2 -255 -106 -409q-45 26 -99 33q114 140 109 377v26h-107zM643 670v-250h119v250h-119zM249 670v-250h112v250h-112z" />
    <glyph glyph-name="uni518D" unicode="&#x518d;" 
d="M80 671v84h837v-84h-369v-104h283v-366h124v-84h-124v-69q2 -144 -136 -142q-38 0 -86 6q-4 50 -27 94q48 -9 90 -10q66 -3 63 68v53h-469v-220h-97v220h-127v84h127v366h282v104h-371zM735 486h-187v-104h187v104zM548 305v-104h187v104h-187zM266 486v-104h185v104
h-185zM266 305v-104h185v104h-185z" />
    <glyph glyph-name="uni51B2" unicode="&#x51b2;" 
d="M576 -105v279h-141v-75h-93v514h234v192h99v-192h235v-514h-93v75h-142v-279h-99zM124 -34l-85 72q88 132 165 338l78 -53q-69 -207 -158 -357zM817 526h-144v-265h144v265zM435 526v-265h143v265h-143zM201 454q-67 125 -152 237l93 43q72 -95 136 -216z" />
    <glyph glyph-name="uni51B5" unicode="&#x51b5;" 
d="M765 -77q-126 -4 -123 120v292h-98q6 -333 -267 -442q-32 41 -82 66q266 95 254 376h-108v417h519v-417h-122v-277q-1 -46 44 -45h37q41 -2 51 48q5 20 13 90q36 -36 79 -46q-6 -58 -11 -79q-21 -108 -121 -103h-65zM439 422h323v243h-323v-243zM123 -10l-83 75
q97 138 176 329l75 -56q-74 -198 -168 -348zM209 462q-75 126 -158 226l89 48q83 -103 142 -208z" />
    <glyph glyph-name="uni51C6" unicode="&#x51c6;" 
d="M378 -104v531q-35 -48 -74 -93q-26 44 -75 72q159 168 226 401l91 -37q-21 -71 -52 -140h206q-50 77 -105 136l88 35q55 -58 98 -125l-65 -46h219v-82h-191v-115h168v-78h-168v-116h169v-79h-169v-119h207v-81h-475v-64h-98zM129 -45l-83 75q91 138 160 338l77 -56
q-57 -186 -154 -357zM200 461q-66 125 -150 230l92 43q84 -107 137 -209zM476 160v-119h171v119h-171zM476 355v-116h171v116h-171zM476 548v-115h171v115h-171z" />
    <glyph glyph-name="uni51CF" unicode="&#x51cf;" 
d="M588 -101q-30 29 -79 49q112 76 188 175q-37 156 -45 425h-275v-179q3 -305 -116 -472q-36 26 -90 38q121 163 117 448v247h362q-1 79 -1 69v41v59l93 7q-1 -71 -1 -104q-1 -40 0 -72h193v-82h-191q6 -178 25 -311q52 100 81 222l74 -44q-47 -168 -131 -298
q29 -107 67 -110q17 -1 31 48q8 33 14 71q32 -37 67 -56q-6 -33 -15 -63q-27 -100 -98 -100q-83 2 -133 121q-61 -71 -137 -129zM409 50v260h213v-260h-213zM111 -3l-84 60q82 134 147 342l74 -46q-54 -200 -137 -356zM176 475q-56 111 -134 221l88 41q68 -92 121 -201z
M404 386v78h221v-78h-221zM842 634q-42 75 -83 122l77 28q39 -47 76 -108zM479 117h73v125h-73v-125z" />
    <glyph glyph-name="uni51E0" unicode="&#x51e0;" 
d="M122 -100q-39 43 -92 68q243 112 234 451q2 87 1 177q0 88 -3 157h434v-653q-4 -76 63 -71h39q55 -3 68 63q9 44 18 99q41 -41 82 -57q-7 -41 -17 -85q-29 -121 -143 -117h-66q-148 -2 -146 154v576h-229q3 -113 0 -237q3 -391 -243 -525z" />
    <glyph glyph-name="uni51FA" unicode="&#x51fa;" 
d="M113 -64v344h100v-250h235v331h-304v355h100v-262h204v351h102v-351h205v261h99v-354h-304v-331h236v249h99v-384h-99v41h-673z" />
    <glyph glyph-name="uni5206" unicode="&#x5206;" 
d="M174 -107q-38 41 -88 69q269 95 286 373h-127v74q-57 -64 -123 -111q-38 40 -91 60q234 157 312 431l93 -41q-60 -185 -177 -323h493q-127 134 -196 340l87 38q97 -296 345 -416q-59 -26 -97 -79q-61 41 -114 92l-15 -339q-4 -150 -150 -148q-37 0 -95 7q-3 53 -22 95
q55 -10 95 -10q72 -1 74 68l13 262h-208q-19 -322 -295 -442z" />
    <glyph glyph-name="uni5207" unicode="&#x5207;" 
d="M396 -106q-38 37 -104 56q263 172 265 543q2 42 4 144h-138v92h496l-18 -643q-4 -163 -158 -163q-37 0 -82 5q-7 58 -27 100q56 -8 91 -8q79 -2 79 87l16 530h-160q-2 -77 -5 -149q-9 -413 -259 -594zM43 464l-6 91l135 11v238h98v-229l158 14l5 -91l-163 -15v-290
l132 106l57 -66l-192 -159q-34 -25 -67 -67l-68 83q42 42 40 119v266z" />
    <glyph glyph-name="uni5217" unicode="&#x5217;" 
d="M83 666v83h496v-83h-226q-16 -79 -38 -147h215v-76q-52 -379 -363 -554q-36 39 -88 62q163 86 250 216q-58 51 -126 97l75 51q43 -26 97 -69q41 87 60 190h-151q-56 -134 -152 -236q-39 32 -91 46q163 162 215 420h-173zM765 -95q-37 0 -87 5q-4 49 -27 98q56 -9 97 -10
q61 -1 60 61v742h95v-757q-1 -138 -138 -139zM614 138v518h90v-518h-90z" />
    <glyph glyph-name="uni521B" unicode="&#x521b;" 
d="M557 464q-103 95 -230 189q-62 -96 -145 -175h326v-203q0 -123 -125 -123q-34 0 -72 5q-2 40 -18 84q40 -6 74 -6q51 0 51 54v107h-182v-326q1 -60 69 -61h105q63 -2 79 57q9 28 17 68q36 -38 78 -55q-9 -39 -17 -62q-31 -100 -144 -95h-142q-138 -1 -137 141v380
q-27 -22 -54 -42q-33 46 -70 69q200 144 287 344l87 -36l-21 -45q110 -77 233 -184zM774 -93q-33 0 -87 6q-3 57 -22 98q53 -10 95 -10q56 -1 55 59v744h92v-761q0 -136 -133 -136zM630 134v571h88v-571h-88z" />
    <glyph glyph-name="uni5229" unicode="&#x5229;" 
d="M70 431v86h213v137q-67 -9 -146 -15q-19 49 -49 82q243 16 396 69l59 -76q-63 -23 -165 -43v-154h179v-86h-179v-83l33 16q86 -97 148 -188l-66 -64q-53 81 -115 162v-378h-95v385q-69 -138 -156 -226q-43 31 -93 40q150 149 227 336h-191zM756 -97q-43 0 -86 7
q-4 51 -27 97q61 -9 98 -9q59 -1 58 62v735h95v-751q-3 -138 -138 -141zM614 131v533h89v-533h-89z" />
    <glyph glyph-name="uni522B" unicode="&#x522b;" 
d="M132 453v308h413v-308h-413zM125 -105q-37 35 -88 54q171 110 209 304h-165v83h176q3 46 3 92l91 -8q0 -5 -1 -18q-1 -42 -3 -66h212l-12 -282q-4 -138 -133 -138q-43 0 -84 4q-1 49 -19 89q56 -8 84 -8q62 -2 63 67l9 185h-128q-35 -227 -214 -358zM774 -93q-33 0 -87 6
q-3 57 -22 98q53 -10 95 -10q56 -1 55 59v744h92v-761q0 -136 -133 -136zM636 146v532h88v-532h-88zM221 534h234v145h-234v-145z" />
    <glyph glyph-name="uni5230" unicode="&#x5230;" 
d="M75 666v84h485v-84h-207q-67 -113 -133 -193l202 13q-33 46 -67 88l79 35q71 -87 143 -197l-68 -56q-17 27 -35 54l-292 -18q-41 -1 -76 -10l-34 77q39 12 70 51q53 69 105 156h-172zM94 189v85h180v96h94v-96h174v-85h-174v-120l182 30l24 -77l-492 -95l-34 90l226 37
v135h-180zM771 -93q-41 0 -88 7q-1 51 -22 97q52 -9 94 -9q57 -1 56 60v743h95v-761q-2 -135 -135 -137zM620 145v539h91v-539h-91z" />
    <glyph glyph-name="uni5236" unicode="&#x5236;" 
d="M154 510q-40 19 -90 24q76 109 107 248l84 -26q-9 -39 -23 -80h78v129h93v-129h183v-82h-183v-104h205v-82h-205v-96h188v-240q-2 -106 -102 -108q-20 0 -54 4q0 49 -15 82q30 -6 53 -6q32 -1 32 39v147h-102v-335h-93v335h-102v-272h-87v354h189v96h-248v82h248v104
h-110q-21 -46 -46 -84zM775 -95q-43 0 -82 6q-6 64 -23 96q43 -9 86 -9q54 -1 53 60v747h93v-767q1 -134 -127 -133zM656 119v579h80v-579h-80z" />
    <glyph glyph-name="uni5237" unicode="&#x5237;" 
d="M102 -60q-39 33 -88 43q109 173 104 456v329h452v-277h-361v-56q3 -301 -107 -495zM229 3v380h135v84h85v-84h140v-286q-1 -88 -80 -89q-22 0 -39 3q-2 38 -20 74q17 -4 39 -4q24 -1 23 30v189h-65v-405h-81v405h-63v-297h-74zM779 -93q-43 0 -90 5q-2 57 -22 98
q62 -10 94 -10q56 -1 55 58v746h92v-760q0 -136 -129 -137zM654 126v563h87v-563h-87zM209 683v-106h271v106h-271z" />
    <glyph glyph-name="uni523B" unicode="&#x523b;" 
d="M61 595v84h244q-37 56 -78 107l95 25q46 -57 87 -126l-12 -6h195v-84h-249q-57 -89 -119 -158l157 4q39 52 68 109l71 -44q-138 -249 -407 -391q-23 32 -73 61q159 71 275 188l-131 -5q-28 -1 -63 -11l-34 81q35 15 71 53q41 45 85 113h-182zM771 -93q-47 0 -86 6
q-3 60 -21 97q56 -9 92 -9q59 -2 57 58v745h92v-762q1 -136 -134 -135zM543 -81q-68 81 -156 160q-120 -108 -267 -174q-24 31 -74 63q309 136 477 409l65 -54q-63 -100 -138 -181q94 -80 148 -144zM639 129v566h88v-566h-88z" />
    <glyph glyph-name="uni524D" unicode="&#x524d;" 
d="M130 -103v613h371v-486q4 -126 -110 -122q-27 0 -71 6q-3 43 -24 84q42 -6 69 -6q43 -3 41 48v66h-180v-203h-96zM54 584v83h273q-51 54 -100 96l87 46q72 -62 120 -122l-25 -20h168q58 69 98 144l93 -36q-37 -64 -73 -108h247v-83h-888zM750 -99q-29 0 -83 6
q-4 49 -30 93q4 0 13 -1q50 -6 71 -6q50 -1 49 53v483h97v-493q3 -138 -117 -135zM587 74v406h89v-406h-89zM226 430v-94h180v94h-180zM226 265v-94h180v94h-180z" />
    <glyph glyph-name="uni529B" unicode="&#x529b;" 
d="M670 -78q-52 0 -105 5q-3 62 -28 108q70 -11 120 -11q94 0 97 98l14 395h-256q-32 -429 -348 -619q-37 39 -98 64q315 175 343 555h-285v95h291q3 87 1 194l106 -5q0 -106 -4 -189h355l-17 -510q-5 -181 -186 -180z" />
    <glyph glyph-name="uni529F" unicode="&#x529f;" 
d="M752 -78q-35 0 -89 6q-3 56 -24 96q54 -8 93 -8q72 -2 73 86l14 408h-143v-2q-11 -432 -256 -621q-42 31 -106 45q257 180 262 578h-130v88h133q1 40 2 88v50v71l102 -6q0 -102 -3 -203h237l-16 -515q-4 -163 -149 -161zM63 607v88h373v-88h-133v-415l123 37l42 -76
l-391 -130l-48 86l175 53v445h-141z" />
    <glyph glyph-name="uni52A0" unicode="&#x52a0;" 
d="M568 -73v778h339v-778h-94v79h-150v-79h-95zM115 -96q-36 28 -94 43q168 187 173 604v12h-134v87h137q2 101 2 156l95 -6v-85q0 -35 -1 -65h200l-10 -571q1 -153 -142 -151q-35 0 -78 5q-3 56 -20 94q62 -9 86 -9q62 -2 62 69l7 476h-108v-15q-13 -457 -175 -644z
M663 619v-527h150v527h-150z" />
    <glyph glyph-name="uni52A1" unicode="&#x52a1;" 
d="M92 270q-21 46 -57 82q225 31 384 103q-73 50 -136 114q-47 -45 -101 -82q-39 39 -80 55q173 114 260 276l82 -39q-16 -30 -35 -59h392v-71q-81 -114 -202 -193q147 -64 367 -86q-36 -40 -54 -90q-242 37 -404 122q-186 -95 -416 -132zM657 -93q-43 0 -90 5q-2 50 -23 90
q63 -9 97 -9q69 -1 72 68l7 110h-236q-58 -212 -338 -283q-21 41 -67 76q243 54 304 207h-220v82h244q7 42 8 95l96 -12q-3 -44 -9 -83h315l-11 -207q-7 -140 -149 -139zM351 641q-6 -8 -12 -14q78 -75 169 -126q96 56 174 140h-331z" />
    <glyph glyph-name="uni52A8" unicode="&#x52a8;" 
d="M491 -114q-39 32 -91 44q221 180 222 594v8h-116v85h119q1 36 1 79v46v63l94 -5q0 -58 -2 -183h207l-13 -538q-2 -163 -143 -160q-38 0 -81 5q-3 47 -24 95q49 -8 86 -8q68 -1 68 75l13 446h-116q0 -3 -1 -9v-7q-10 -445 -223 -630zM439 25q-3 8 -10 26l-9 24l-214 -44
q-57 -13 -99 -36l-55 83q42 24 67 81q48 101 93 239h-166v84h460v-84h-197q-49 -152 -105 -275l184 31q-46 108 -75 166l85 18q65 -128 117 -264zM105 635v85h366v-85h-366z" />
    <glyph glyph-name="uni52AA" unicode="&#x52aa;" 
d="M535 311q-3 -32 -7 -57h312l-12 -212q-6 -135 -142 -134q-28 0 -92 5q-2 47 -22 91q72 -9 97 -9q66 -2 67 63l7 114h-233q-58 -219 -349 -283q-23 43 -66 76q256 53 315 207h-226v82h249q6 30 7 69zM464 323q-60 35 -116 63q-91 -88 -241 -141q-22 35 -66 64
q145 54 223 119q-85 40 -142 62q32 56 64 132h-115v80h145q18 49 34 113l89 -27q-12 -44 -27 -86h171v-71q-25 -100 -78 -176l45 -24q26 -13 39 -20zM911 267q-126 49 -206 115q-62 -43 -140 -73q-21 38 -63 63q81 31 139 70q-66 71 -111 173l48 36h-64v80h388v-72
q-36 -129 -129 -220q81 -59 200 -96q-41 -33 -62 -76zM810 651h-204q41 -90 102 -156q68 64 102 156zM240 531q42 -18 87 -39q43 58 65 130h-110q-21 -50 -42 -91z" />
    <glyph glyph-name="uni52BF" unicode="&#x52bf;" 
d="M86 624v79h141v102h89v-102h109v-79h-109v-58l86 19l24 -67l51 51q45 -20 72 -33q18 41 25 93h-108v80h116q1 18 1 40v58l91 -6v-55q0 -21 -1 -37h169q-14 -94 -7 -203q7 -122 34 -121q16 0 29 39q10 36 18 83q27 -34 62 -49q-8 -42 -16 -65q-32 -102 -97 -104
q-100 -1 -115 185q-6 79 -2 155h-81q-9 -77 -36 -137q49 -27 91 -54l-31 -82q-7 5 -22 14q-27 18 -81 51q-44 -57 -117 -102l62 -9q-2 -37 -8 -70h325l-16 -192q-9 -142 -150 -141q-61 0 -113 5q-4 56 -29 97q86 -12 121 -12q70 -2 74 67l8 94h-242q-68 -202 -350 -268
q-25 49 -69 79q256 58 315 189h-274v82h302q6 28 8 61q-32 38 -75 59q101 53 146 107q-23 13 -69 36q-11 5 -17 8l4 4l-108 -28v-79q-1 -119 -114 -121q-36 0 -70 5q-3 49 -26 87q42 -9 75 -9q48 -2 46 47v48l-138 -35l-35 77l173 39v78h-141z" />
    <glyph glyph-name="uni5305" unicode="&#x5305;" 
d="M122 358q-33 36 -87 63q183 165 264 389l95 -32q-13 -39 -31 -77h484l-9 -426q-4 -154 -133 -153q-36 0 -76 4q-3 56 -25 94v-24h-301v-121q0 -64 70 -64h385q72 -3 96 73q10 32 22 86q36 -43 80 -63q-10 -47 -19 -72q-35 -116 -168 -113h-406q-156 -1 -155 142v386
q-41 -50 -86 -92zM750 615h-430q-30 -55 -66 -105h350v-287q43 -6 80 -7q56 0 57 67zM303 427v-148h209v148h-209z" />
    <glyph glyph-name="uni5316" unicode="&#x5316;" 
d="M418 164q-31 37 -76 60q105 59 198 130v449h99v-368q133 118 211 235l84 -53q-121 -163 -295 -303v-234q-2 -68 62 -66h91q61 -5 75 72q5 18 14 64q3 16 4 23q31 -36 79 -56q-6 -37 -15 -79q-28 -119 -144 -116h-122q-145 -2 -143 152v167q-60 -42 -122 -77zM207 -104
v516q-55 -73 -96 -112q-36 34 -88 54q190 190 279 451l89 -48q-32 -92 -86 -191v-670h-98z" />
    <glyph glyph-name="uni5339" unicode="&#x5339;" 
d="M706 129q-127 -4 -123 128v398h-113v-178q6 -240 -167 -378q-35 36 -81 57v-139h690v-91h-790v819h765v-90h-207v-389q-2 -53 44 -50h33q42 -2 53 56q8 33 14 73q37 -38 75 -52q-2 -15 -9 -44q-2 -11 -3 -16q-24 -106 -121 -104h-60zM222 165q159 128 151 321v169h-151
v-490z" />
    <glyph glyph-name="uni533A" unicode="&#x533a;" 
d="M131 -68v819h743v-92h-641v-635h681v-92h-783zM766 76q-78 87 -183 194q-109 -120 -229 -200q-32 31 -84 54q128 83 247 213q-139 139 -214 206l79 51q84 -75 196 -185q81 102 131 204l80 -49q-55 -110 -144 -221q95 -95 182 -191z" />
    <glyph glyph-name="uni5341" unicode="&#x5341;" 
d="M50 342v99h395v364h106v-364h398v-99h-398v-447h-106v447h-395z" />
    <glyph glyph-name="uni5347" unicode="&#x5347;" 
d="M46 332v94h243v209q-75 -11 -148 -17q-17 46 -53 85q255 14 415 72l61 -77q-62 -23 -173 -45v-227h234v375h101v-375h227v-94h-227v-435h-101v435h-236q-10 -283 -218 -440q-42 42 -98 60q212 149 214 380h-241z" />
    <glyph glyph-name="uni5355" unicode="&#x5355;" 
d="M154 244v414h193q-51 51 -123 112l79 43q70 -54 134 -121l-29 -34h144q75 77 133 156l82 -38q-45 -61 -100 -118h178v-414h-296v-86h403v-83h-403v-180h-99v180h-403v83h403v86h-296zM250 324h200v90h-200v-90zM549 324h199v90h-199v-90zM250 577v-88h200v88h-200z
M748 577h-199v-88h199v88z" />
    <glyph glyph-name="uni5360" unicode="&#x5360;" 
d="M152 -105v495h263v415h103v-153h401v-90h-401v-172h319v-495h-101v71h-483v-71h-101zM253 299v-243h483v243h-483z" />
    <glyph glyph-name="uni5367" unicode="&#x5367;" 
d="M94 -61v821h497v-87h-164v-163h142v-311h-142v-172h164v-88h-497zM901 176q-53 95 -147 240v-521h-99v910h99v-307l41 15q121 -163 185 -277zM477 425h-286v-141h286v141zM191 199v-172h143v172h-143zM191 673v-163h143v163h-143z" />
    <glyph glyph-name="uni5373" unicode="&#x5373;" 
d="M471 -22q-30 52 -57 95l-219 -108q-33 -19 -63 -46l-52 85q28 28 28 83v664h389v-446h-296v-228l162 74q-40 58 -61 85l83 38q81 -105 159 -239zM581 -105v850h331v-590q0 -132 -123 -132q-36 0 -68 5q1 45 -16 93q33 -8 68 -8q50 -1 49 61v483h-146v-762h-95zM201 387
h205v103h-205v-103zM201 668v-101h205v101h-205z" />
    <glyph glyph-name="uni5374" unicode="&#x5374;" 
d="M97 570v86h169v149h92v-149h167v-86h-167v-151h205v-86h-229q-61 -143 -127 -251l209 17q-37 73 -75 136l86 24q97 -160 144 -268l-77 -50q-18 39 -37 78l-279 -26q-48 -5 -78 -20l-42 77q41 18 65 60q53 84 113 223h-180v86h210v151h-169zM600 -105v841h320v-584
q-2 -132 -123 -134q-34 1 -65 5q-1 48 -20 93q44 -7 67 -7q50 -2 48 61v481h-133v-756h-94z" />
    <glyph glyph-name="uni538B" unicode="&#x538b;" 
d="M301 322v88h233v203h99v-203h251v-88h-251v-298h313v-90h-706v90h294v298h-233zM112 -100q-43 38 -92 56q130 166 126 445v347h768v-89h-668v-272q2 -297 -134 -487zM827 47q-76 101 -149 172l77 44q74 -69 134 -151z" />
    <glyph glyph-name="uni539F" unicode="&#x539f;" 
d="M118 -100q-40 31 -91 50q124 166 122 435v380h775v-83h-347l55 -17q-16 -42 -36 -83h263v-378h-212v-185q0 -118 -125 -118q-36 0 -73 5q-4 45 -23 88q45 -7 79 -7q48 -1 47 53v164h-230v378h168q26 49 44 100h-287v-305q4 -286 -129 -477zM417 277h348v80h-348v-80z
M417 508v-79h348v79h-348zM306 -72q-36 27 -89 46q110 92 168 194l81 -43q-63 -108 -160 -197zM886 -67q-80 101 -174 194l81 43q97 -93 161 -173z" />
    <glyph glyph-name="uni53BB" unicode="&#x53bb;" 
d="M148 562v90h299v153h101v-153h302v-90h-302v-163h388v-90h-413q-78 -126 -202 -263l371 19q-64 75 -116 130l83 43q110 -111 229 -264l-67 -70q-24 33 -59 76l-494 -27q-48 -4 -93 -15l-40 83q46 11 93 63q84 88 176 225h-342v90h385v163h-299z" />
    <glyph glyph-name="uni53C2" unicode="&#x53c2;" 
d="M213 547l-35 74q40 9 79 39q87 71 163 160l89 -38q-75 -82 -156 -147l300 8q-45 40 -92 76l69 48q113 -83 208 -182l-55 -66l-53 53l-215 -7q-13 -36 -30 -67h438v-80h-253q111 -105 308 -154q-42 -35 -70 -84q-219 83 -347 238h-126q-76 -104 -201 -180q191 52 292 137
l64 -49q-130 -103 -317 -151q-16 32 -50 57q-57 -33 -123 -61q-30 40 -75 68q184 65 291 179h-246v80h309q19 30 34 63l-114 -3q-52 -2 -86 -11zM223 -113q-16 40 -61 80q381 32 578 221l84 -44q-203 -211 -601 -257zM258 37q-21 37 -57 66q281 51 427 178l71 -44
q-176 -154 -441 -200z" />
    <glyph glyph-name="uni53C8" unicode="&#x53c8;" 
d="M886 -91q-230 90 -383 227q-162 -148 -386 -232q-25 42 -85 83q229 75 398 222q-138 152 -230 379l96 40q83 -206 209 -345q143 157 192 353h-561v96h674v-85q-58 -244 -232 -437q160 -138 386 -205q-56 -45 -78 -96z" />
    <glyph glyph-name="uni53CA" unicode="&#x53ca;" 
d="M301 -108q-24 48 -76 82q181 39 306 129q-104 96 -167 225q-68 -226 -257 -368q-41 37 -97 55q300 185 300 648h-163v88h636v-75l-92 -209h153v-79q-52 -172 -155 -282q128 -77 289 -106q-50 -44 -73 -97q-168 48 -292 134q-124 -96 -312 -145zM411 663q-1 -108 -16 -199
q74 -184 211 -299q91 93 130 217h-109q-22 0 -55 -5l-25 75q37 12 60 66l62 145h-258z" />
    <glyph glyph-name="uni53CB" unicode="&#x53cb;" 
d="M897 -100q-194 48 -328 140q-126 -91 -304 -149q-30 51 -78 83q179 50 300 131q-85 79 -150 188q-80 -142 -227 -275q-38 36 -96 54q241 193 323 489l3 12h-261v91h283q13 64 22 145l100 -16q-7 -69 -18 -129h463v-91h-483q-4 -18 -9 -34q-11 -43 -26 -82h406v-81
q-54 -158 -169 -269q130 -82 318 -118q-44 -36 -69 -89zM709 366h-305q69 -119 163 -200q99 89 142 200z" />
    <glyph glyph-name="uni53CC" unicode="&#x53cc;" 
d="M894 -85q-124 79 -211 194q-97 -118 -246 -203q-36 41 -89 64q172 90 276 227q-95 165 -134 386l87 33q35 -197 106 -329q83 152 102 351h-315v94h418v-83q-32 -278 -145 -457q93 -123 241 -202q-48 -26 -90 -75zM420 84q-2 3 -7 9q-57 72 -94 115q-78 -150 -204 -260
q-39 35 -98 56q144 112 230 288q-93 105 -166 179l76 54q59 -56 131 -134q41 116 48 242h-245v94h345v-84q-15 -183 -73 -335q76 -88 119 -145z" />
    <glyph glyph-name="uni53D1" unicode="&#x53d1;" 
d="M108 486v82q65 97 101 206l93 -35q-36 -97 -79 -165h170q29 102 42 232l99 -14q-15 -119 -40 -218h422v-88h-447q-15 -44 -33 -86h382v-77q-59 -131 -158 -227q126 -72 299 -105q-45 -35 -70 -87q-175 48 -303 130q-122 -90 -299 -144q-25 42 -77 74q177 48 296 128
q-85 70 -146 160q-98 -156 -236 -270q-37 38 -95 53q243 187 337 451h-258zM709 317h-290q66 -97 161 -169q83 74 129 169zM782 584q-72 76 -165 154l80 49q92 -73 152 -139z" />
    <glyph glyph-name="uni53D6" unicode="&#x53d6;" 
d="M55 680v85h444v-85h-49v-483l64 16l34 -74l-98 -29v-131q130 80 210 198q-92 168 -131 400l88 35q28 -200 97 -341q69 143 88 361h-290v93h390v-84q-27 -285 -129 -468q82 -117 212 -189q-49 -23 -84 -75q-106 72 -184 178q-77 -104 -202 -187q-27 35 -65 56v-59h-92v186
l-280 -81l-53 88l96 24v566h-66zM211 276v-140l147 37v103h-147zM211 479v-121h147v121h-147zM211 680v-120h147v120h-147z" />
    <glyph glyph-name="uni53D7" unicode="&#x53d7;" 
d="M890 -102q-227 31 -379 113q-150 -84 -376 -121q-26 53 -69 86q211 32 351 95q-91 66 -165 166l41 27h-102v85h588v-77q-67 -118 -179 -204q138 -63 351 -79q-38 -35 -61 -91zM82 319v206h177q-43 64 -88 111l91 31q43 -43 87 -110l-62 -32h213q-41 74 -84 130l90 27
q43 -53 78 -117l-77 -40h101q84 96 134 179l87 -49q-52 -74 -101 -130h188v-206h-97v119h-640v-119h-97zM152 673q-11 52 -39 89q399 -5 709 45l56 -83q-322 -50 -726 -51zM655 264h-307q70 -87 158 -145q93 61 149 145z" />
    <glyph glyph-name="uni53D8" unicode="&#x53d8;" 
d="M884 -104q-225 30 -381 108q-152 -79 -377 -116q-28 55 -68 84q210 32 347 90q-94 66 -169 163l38 28h-98v88h608v-75q-70 -120 -186 -204q138 -58 348 -76q-39 -39 -62 -90zM73 612v89h389q-33 46 -72 89l96 39q43 -45 84 -109l-32 -19h384v-89h-263v-232h-97v232h-126
v-232h-98v232h-265zM658 253h-324q72 -85 166 -142q97 58 158 142zM101 326l-56 76q113 78 198 175l61 -65q-91 -105 -203 -186zM901 337q-103 102 -207 178l71 55q88 -61 187 -155z" />
    <glyph glyph-name="uni53E3" unicode="&#x53e3;" 
d="M138 -58v774h719v-774h-104v87h-513v-87h-102zM240 622v-500h513v500h-513z" />
    <glyph glyph-name="uni53EA" unicode="&#x53ea;" 
d="M182 274v475h636v-475h-636zM284 364h432v295h-432v-295zM141 -105q-37 43 -89 68q176 108 287 254l85 -57q-116 -155 -283 -265zM879 -104q-147 142 -294 257l80 63q149 -110 273 -230z" />
    <glyph glyph-name="uni53EF" unicode="&#x53ef;" 
d="M52 653v92h896v-92h-148v-599q4 -155 -159 -151q-52 0 -106 7q-4 58 -24 102q79 -11 120 -11q70 -3 67 71v581h-646zM174 146v388h399v-388h-399zM272 234h202v211h-202v-211z" />
    <glyph glyph-name="uni53F0" unicode="&#x53f0;" 
d="M175 -105v415h653v-415h-100v66h-452v-66h-101zM873 340q-47 53 -81 87l-559 -21q-56 -4 -101 -17l-43 89q53 17 101 57q159 139 258 274l98 -41q-110 -138 -260 -271l422 13q-54 52 -125 113l80 54q142 -117 272 -262zM276 223v-175h452v175h-452z" />
    <glyph glyph-name="uni53F7" unicode="&#x53f7;" 
d="M50 329v85h898v-85h-589l-27 -83h492l-25 -191q-16 -156 -188 -152q-76 1 -139 10q-4 53 -30 98q100 -12 163 -13q83 -1 92 73l13 92h-508l52 166h-204zM199 489v272h603v-272h-603zM298 570h404v108h-404v-108z" />
    <glyph glyph-name="uni53F8" unicode="&#x53f8;" 
d="M89 480v88h629v-88h-629zM718 -98q-39 0 -88 6q-4 57 -25 99q54 -7 91 -7q84 -3 81 87v579h-644v92h746v-689q2 -169 -161 -167zM269 154h279v145h-279v-145zM169 67v319h479v-319h-479z" />
    <glyph glyph-name="uni5403" unicode="&#x5403;" 
d="M88 23v688h281v-207q123 135 167 305l87 -29q-13 -47 -37 -102h356v-86h-399q-45 -81 -104 -147q-37 27 -70 37v-434h-90v55h-99v-80h-92zM587 -70q-133 6 -141 113q-1 50 39 105q73 97 222 234h-245v85h391v-76q-194 -173 -276 -280q-23 -32 -23 -53q0 -37 60 -37h169
q63 -5 78 62q5 16 16 75q1 4 1 5q38 -40 81 -55q-9 -58 -18 -84q-28 -95 -136 -94h-218zM180 623v-433h99v433h-99z" />
    <glyph glyph-name="uni5404" unicode="&#x5404;" 
d="M84 247q-21 48 -57 83q235 38 397 118q-71 50 -133 112q-53 -54 -110 -98q-36 38 -82 57q173 124 266 299l84 -40q-15 -30 -34 -58h375v-71q-78 -119 -192 -200q156 -71 372 -96q-39 -41 -56 -93q-241 45 -402 134q-130 -74 -305 -119h593v-379h-97v55h-403v-55h-97v378
q-57 -15 -119 -27zM300 193v-159h403v159h-403zM359 640q-7 -10 -15 -19q82 -76 165 -125q96 63 164 144h-314z" />
    <glyph glyph-name="uni5408" unicode="&#x5408;" 
d="M186 -105v397h629v-397h-99v56h-431v-56h-99zM96 372q-26 41 -76 76q315 131 461 372l88 -39l-21 -36q178 -195 429 -273q-46 -38 -72 -86q-77 31 -155 78v-75h-489v70q-79 -49 -165 -87zM285 206v-169h431v169h-431zM735 474q-142 91 -234 201q-87 -113 -219 -201h453z
" />
    <glyph glyph-name="uni540C" unicode="&#x540c;" 
d="M113 -105v853h777v-696q-1 -150 -135 -151q-29 0 -95 6q-4 1 -6 1q-3 46 -26 98q57 -9 96 -9q67 -1 66 70v592h-577v-764h-100zM269 488v83h464v-83h-464zM314 84v316h373v-316h-373zM408 167h187v150h-187v-150z" />
    <glyph glyph-name="uni540E" unicode="&#x540e;" 
d="M316 -105v433h548v-433h-98v65h-352v-65h-98zM129 -85q-41 32 -99 43q147 178 140 446v325q437 2 638 55l69 -83q-227 -49 -609 -59v-109h674v-87h-674v-42q5 -296 -139 -489zM414 241v-194h352v194h-352z" />
    <glyph glyph-name="uni5411" unicode="&#x5411;" 
d="M113 -101v758h233q51 82 77 155l110 -22q-26 -65 -68 -133h419v-600q1 -154 -146 -153q-49 0 -96 5q-4 52 -26 98q63 -9 99 -9q72 -3 69 71v498h-570v-668h-101zM317 103v345h363v-345h-363zM409 186h178v178h-178v-178z" />
    <glyph glyph-name="uni542B" unicode="&#x542b;" 
d="M179 -105v332h324q-22 14 -50 24q106 51 175 111h-432v80h305q-45 56 -111 116l85 39q58 -50 106 -110l-69 -45h266v-65q-69 -72 -194 -150h236v-332h-100v51h-441v-51h-100zM907 411q-249 91 -413 274q-143 -175 -396 -287q-33 43 -82 70q325 138 456 359l95 -36
q-10 -18 -21 -34q178 -184 435 -257q-44 -30 -74 -89zM279 147v-121h441v121h-441z" />
    <glyph glyph-name="uni542C" unicode="&#x542c;" 
d="M88 5v722h287v-684h-93v54h-102v-92h-92zM713 -103v479h-150v-17q6 -297 -131 -457q-46 29 -97 43q76 85 104 178q30 91 29 246v352q233 7 386 52l57 -77q-146 -44 -348 -58v-173h390v-89h-143v-479h-97zM180 641v-458h102v458h-102z" />
    <glyph glyph-name="uni542F" unicode="&#x542f;" 
d="M120 -100q-49 39 -95 53q125 163 120 416v323h333q-38 45 -83 90l111 27l6 -6q69 -75 92 -111h272v-302h-632v-30q6 -272 -124 -460zM303 -103v392h580v-392h-98v63h-384v-63h-98zM244 602v-122h534v122h-534zM401 202v-155h384v155h-384z" />
    <glyph glyph-name="uni5448" unicode="&#x5448;" 
d="M139 291v85h723v-85h-312v-97h269v-84h-269v-103h395v-85h-892v85h395v103h-268v84h268v97h-309zM177 456v309h644v-309h-644zM277 541h445v139h-445v-139z" />
    <glyph glyph-name="uni544A" unicode="&#x544a;" 
d="M192 -104v380h625v-380h-100v55h-424v-55h-101zM200 471q-48 22 -99 30q104 134 144 281l90 -33q-12 -42 -30 -85h166v141h100v-141h278v-86h-278v-128h376v-87h-896v87h420v128h-205q-30 -58 -66 -107zM293 189v-152h424v152h-424z" />
    <glyph glyph-name="uni548C" unicode="&#x548c;" 
d="M544 -68v779h370v-779h-96v87h-178v-87h-96zM61 441v85h198v136q-72 -10 -128 -14q-15 43 -46 75q223 18 363 65l56 -72q-66 -21 -151 -38v-152h157v-85h-157v-72l26 14q84 -92 135 -171l-65 -64q-50 77 -96 138v-391h-94v398q-73 -142 -149 -214q-39 27 -90 37
q146 142 221 325h-180zM640 624v-517h178v517h-178z" />
    <glyph glyph-name="uni54C1" unicode="&#x54c1;" 
d="M219 422v331h562v-331h-562zM539 -99v435h365v-435h-93v60h-179v-60h-93zM97 -99v435h360v-435h-93v60h-175v-60h-92zM318 509h364v157h-364v-157zM632 250v-203h179v203h-179zM189 250v-203h175v203h-175z" />
    <glyph glyph-name="uni54E6" unicode="&#x54e6;" 
d="M354 437v86h120v125q-42 -8 -85 -14q-12 45 -44 76q150 14 265 60l45 -70q-46 -18 -93 -31v-146h116q-2 151 2 275l87 6q-1 -30 -3 -93l73 33q50 -59 93 -130l-63 -52q-52 89 -103 147q-1 -95 0 -186h178v-86h-176q0 -28 2 -51q3 -70 14 -139q49 64 85 143l62 -54
q-51 -109 -128 -193q3 -12 6 -22q26 -106 62 -107q17 0 30 46q8 32 17 77q27 -40 63 -60q-5 -32 -19 -78q-26 -87 -94 -89q-83 6 -127 144q-2 4 -5 13l-3 9q-44 -37 -95 -69q-24 38 -66 61q78 43 137 97q-23 106 -27 272h-118v-117l62 22l36 -72l-98 -38v-211
q0 -117 -117 -117q-34 0 -64 5q-1 50 -23 96q48 -9 75 -9q43 -3 41 51v152l-91 -35l-45 80l136 46v147h-120zM78 5v729h249v-705h-83v68h-82v-92h-84zM162 649v-468h82v468h-82z" />
    <glyph glyph-name="uni5507" unicode="&#x5507;" 
d="M105 -91q-36 29 -90 46q134 171 128 484v327h764v-74h-668v-181h693v-66h-102l55 -39q-52 -38 -124 -77q84 -38 203 -56q-33 -29 -52 -78q-286 60 -408 250h-80v-129l133 31l38 -63l-186 -51q-39 -11 -70 -29l-37 62q33 25 31 77v102h-94v-11q0 -334 -134 -525zM288 -105
v300h569v-300h-93v52h-382v-52h-94zM382 122v-101h382v101h-382zM294 569v63h564v-63h-564zM694 365q70 37 125 80h-219q42 -47 94 -80z" />
    <glyph glyph-name="uni5546" unicode="&#x5546;" 
d="M289 210q-24 27 -57 45v-360h-96v617h202q-31 40 -79 88l90 32q48 -50 92 -107l-25 -13h138q55 65 88 122l92 -34q-32 -46 -66 -88h193v-470q1 -140 -137 -139q-46 0 -84 4q-5 46 -23 89q48 -7 86 -7q63 -3 61 69v376h-532v-168q100 72 164 154l66 -42q-34 -44 -90 -97
h273q-52 51 -110 98l67 41q88 -69 158 -144l-53 -59q-21 23 -44 46v-227h-330v209q-23 -20 -44 -35zM56 635v81h402q-27 39 -60 77l109 24q43 -53 74 -101h360v-81h-885zM412 107h171v105h-171v-105z" />
    <glyph glyph-name="uni5584" unicode="&#x5584;" 
d="M46 216v76h211q-23 30 -49 57l89 24q34 -35 63 -81h90v88h-351v71h351v55h-285v67h285v52h-347v71h223q-34 43 -78 87l96 26q55 -50 89 -99l-28 -14h161q48 60 79 114l98 -28q-39 -58 -62 -86h217v-71h-351v-52h289v-67h-289v-55h351v-71h-351v-88h91q33 42 57 86l84 -26
q-24 -37 -41 -60h215v-76h-907zM170 -105v266h656v-266h-95v45h-465v-45h-96zM266 88v-75h465v75h-465z" />
    <glyph glyph-name="uni559C" unicode="&#x559c;" 
d="M49 185v71h255l-43 43l44 16h-124v176h637v-176h-125l43 -15q-18 -23 -38 -44h252v-71h-901zM164 -105v243h670v-243h-98v43h-474v-43h-98zM88 659v71h361v74h100v-74h362v-71h-362v-51h304v-69h-709v69h305v51h-361zM262 71v-67h474v67h-474zM278 375h442v56h-442v-56z
M369 315q26 -26 54 -59h155q32 30 53 59h-262z" />
    <glyph glyph-name="uni5634" unicode="&#x5634;" 
d="M337 443l-28 72l55 10v225h72v-212l57 11v255h78v-91h79v-67h-79v-83l73 14l22 -58l-121 -28l40 -19q-9 -13 -20 -27h270v-54l-60 -53h125v-323q2 -115 -100 -113q-29 0 -65 4q-3 43 -19 76q37 -5 62 -5q39 -2 37 46v25h-131v-120h-83v120h-136q-20 -87 -95 -156
q-40 35 -83 50q111 81 105 227v119q-18 -12 -36 -22q-21 22 -48 40v-228h-77v54h-70v-89h-76v700h223v-412q108 62 180 147zM779 479q-101 -1 -100 101v224h80v-107q74 32 138 73l52 -52q-93 -57 -190 -92v-38q0 -38 36 -38h47q36 -1 48 41q7 25 13 50q25 -30 61 -45
q-2 -8 -2 -5q-7 -28 -11 -38q-23 -75 -100 -74h-72zM161 663v-451h70v451h-70zM511 385q-24 -24 -52 -47h204l52 47h-204zM815 274h-131v-52h131v52zM684 161v-52h131v52h-131zM477 156q0 -25 -2 -47h126v52h-124v-5zM477 274v-52h124v52h-124z" />
    <glyph glyph-name="uni5668" unicode="&#x5668;" 
d="M133 -105v294q-11 -2 -34 -4q-11 -1 -17 -2q-18 41 -55 73q252 19 346 104h-295v76h351q12 30 18 68h-312v264h331v-257l76 -19q-7 -29 -16 -56h165q-23 21 -53 43l65 25h-171v264h334v-264h-143q39 -31 73 -68h124v-76h-315q140 -86 368 -85q-33 -41 -47 -89
q-30 2 -58 6v-297h-87v53h-164v-53h-87v318h228q-163 43 -256 147h-13q-66 -102 -236 -147h215v-318h-87v53h-160v-53h-88zM617 139v-118h164v118h-164zM221 139v-118h160v118h-160zM619 577h160v117h-160v-117zM222 577h157v117h-157v-117z" />
    <glyph glyph-name="uni56DB" unicode="&#x56db;" 
d="M109 -78v800h777v-800h-99v84h-579v-84h-99zM271 160q-29 36 -63 63v-126h579v533h-144v-280q1 -47 42 -49q38 -2 100 4q-10 -33 -12 -96q-57 -4 -108 -2q-119 3 -118 118v305h-101v-158q5 -215 -175 -312zM208 630v-394q79 44 110 100q32 55 31 152v142h-141z" />
    <glyph glyph-name="uni56DE" unicode="&#x56de;" 
d="M114 -90v836h770v-836h-101v79h-569v-79h-100zM214 656v-577h569v577h-569zM324 198v340h348v-340h-348zM418 281h161v174h-161v-174z" />
    <glyph glyph-name="uni56E0" unicode="&#x56e0;" 
d="M108 -102v857h785v-857h-97v53h-591v-53h-97zM205 668v-630h591v630h-591zM258 416v83h195v127h91v-127h198v-83h-201q-4 -52 -22 -102l37 29q120 -102 191 -182l-56 -73q-71 88 -186 190q-51 -112 -167 -196q-39 36 -82 54q176 125 194 280h-192z" />
    <glyph glyph-name="uni56F4" unicode="&#x56f4;" 
d="M103 -105v868h794v-868h-97v52h-600v-52h-97zM200 678v-646h600v646h-600zM264 519v73h169v60h91v-60h206v-73h-206v-62h178v-72h-178v-64h223l-3 -127q-2 -100 -97 -99q-28 0 -58 5q-3 43 -17 78q35 -7 53 -7q39 -1 39 33l1 45h-141v-190h-91v190h-184v72h184v64h-138
v72h138v62h-169z" />
    <glyph glyph-name="uni56FD" unicode="&#x56fd;" 
d="M105 -105v866h789v-866h-99v58h-591v-58h-99zM204 674v-634h591v634h-591zM258 522v80h482v-80h-202v-103h181v-79h-181v-146h211v-82h-501v82h195v146h-163v79h163v103h-185zM666 198q-42 53 -92 101l61 32q55 -52 86 -92z" />
    <glyph glyph-name="uni56FE" unicode="&#x56fe;" 
d="M102 -105v866h793v-866h-96v53h-600v-53h-97zM750 268q-142 33 -247 90q-108 -63 -254 -97q-18 29 -50 55v-283h407q-129 53 -291 96l42 62q161 -40 289 -96l-17 -62h170v304q-28 -26 -49 -69zM705 546q-51 -80 -130 -140q99 -44 224 -62v332h-381l57 -30
q-10 -20 -21 -38h251v-62zM288 420q-30 30 -68 48q126 93 177 208h-198v-349q133 27 232 77q-45 33 -80 71q-30 -30 -63 -55zM615 163q-85 45 -225 90l44 56q110 -33 200 -79zM598 535h-194l-3 -3l-1 -2q52 -54 102 -84q60 41 96 89z" />
    <glyph glyph-name="uni5708" unicode="&#x5708;" 
d="M102 -105v866h794v-866h-93v52h-607v-52h-94zM264 487v61h101q-24 23 -83 71q-5 4 -8 6l54 35q48 -35 89 -76l-36 -36h65q12 54 16 119l77 -11q-6 -58 -15 -108h96q-23 15 -49 27q52 40 91 90l56 -34q-36 -44 -87 -83h102v-61h-224q-7 -26 -18 -49h265v-61h-128
q66 -65 175 -98v401h-607v-424q112 50 172 121h-130v61h170q13 22 22 49h-166zM441 63q-105 -2 -103 100v87q-40 -28 -89 -54q-20 29 -53 50v-218h607v247q-29 -24 -50 -60q-67 29 -121 69l-2 -42q-2 -83 -85 -80q-26 0 -56 4q-2 27 -15 54q29 -5 50 -5q35 -2 36 31l1 22
h-148v-103q1 -40 44 -41h142q47 -2 60 45q6 19 11 47q29 -32 63 -45q-3 -14 -10 -36q-1 -5 -2 -8q-22 -66 -113 -64h-167zM460 377q-14 -25 -39 -53h166q-24 24 -45 53h-82z" />
    <glyph glyph-name="uni5728" unicode="&#x5728;" 
d="M208 -105v377q-50 -47 -106 -89q-29 41 -85 67q207 149 311 341h-236v89h278q28 67 46 140l97 -30q-14 -56 -35 -110h463v-89h-500q-53 -111 -131 -209v-487h-102zM382 272v87h209v172h101v-172h211v-87h-211v-240h252v-87h-594v87h241v240h-209z" />
    <glyph glyph-name="uni5730" unicode="&#x5730;" 
d="M55 481v86h121v223h93v-223h106v-86l45 12v248h93v-225l106 27v262h93v-238l202 51l-6 -335q-1 -122 -108 -120q-16 0 -48 4q-5 48 -23 89q30 -4 46 -4q42 -2 42 46l5 207l-110 -28v-377h-93v353l-106 -27v-353q2 -59 61 -61h216q64 -1 81 55q11 33 21 75q32 -38 78 -56
q-9 -38 -19 -65q-32 -102 -143 -99h-247q-141 0 -141 142v338l-63 -16l-28 84l43 11h-103v-319l83 34l41 -76l-311 -141l-52 86l146 59v357h-121z" />
    <glyph glyph-name="uni5747" unicode="&#x5747;" 
d="M740 -96q-49 0 -92 6q-3 55 -24 98q57 -10 99 -10q80 -2 81 88l13 479h-279q-51 -102 -122 -183q-37 30 -87 42q27 32 50 63h-104v-299l99 40l45 -71l-331 -150l-59 83l151 60v337h-120v87h120v231h95v-231h106v-84q106 145 148 322l90 -33q-18 -66 -42 -127h338
l-15 -576q-3 -174 -160 -172zM437 3l-70 74q175 95 368 233l56 -60q-192 -147 -354 -247zM599 266q-67 76 -136 134l74 54q65 -55 125 -119z" />
    <glyph glyph-name="uni5757" unicode="&#x5757;" 
d="M352 267v86h203q4 68 4 203h-161v85h162v166l92 -7v-92q0 -37 -1 -67h220v-288h74v-86h-272q85 -201 298 -291q-47 -31 -80 -80q-201 115 -276 303q-48 -186 -257 -304q-35 41 -84 64q226 112 270 308h-192zM52 473v85h118v247h92v-247h110v-85h-110v-298l104 33l35 -74
l-328 -112l-44 80l141 44v327h-118zM651 556q-1 -96 -5 -203h135v203h-130z" />
    <glyph glyph-name="uni578B" unicode="&#x578b;" 
d="M114 684v84h476v-84h-86v-138h100v-85h-100v-173h-91v173h-107q-13 -133 -130 -234q-39 35 -90 48q111 84 128 186h-140v85h147v138h-107zM166 101v84h285v85h99v-85h283v-84h-283v-94h392v-85h-885v85h394v94h-285zM766 243q-36 0 -78 5q-4 55 -22 87q54 -7 85 -7
q49 -3 47 56v420h92v-442q-1 -118 -124 -119zM640 402v337h85v-337h-85zM311 684v-138h102v138h-102z" />
    <glyph glyph-name="uni57DF" unicode="&#x57df;" 
d="M853 627q-42 67 -93 128l81 28q49 -56 83 -110zM942 624v-87h-193q6 -163 24 -291q50 106 74 229l80 -40q-39 -172 -131 -322q4 -21 10 -40q17 -67 44 -68q19 -3 37 56q8 30 18 77q30 -37 68 -53q-7 -43 -20 -81q-33 -102 -104 -99q-82 1 -120 114q-58 -71 -122 -120
q-38 31 -89 42q75 55 133 121l-303 -87l-41 82l319 76l29 -66q25 28 47 58q-33 163 -44 412h-297v87h294q-3 86 -1 176l91 6q-1 -93 1 -182h196zM52 472v88h102v245h91v-245h92v-88h-92v-293l83 33l41 -70l-291 -130l-54 79l130 51v330h-102zM382 172v293h233v-293h-233z
M457 245h83v148h-83v-148z" />
    <glyph glyph-name="uni5883" unicode="&#x5883;" 
d="M386 127v308h491v-308h-120v-80q-1 -50 42 -48h32q40 -2 52 45q5 18 14 72q27 -34 69 -50q-5 -32 -13 -65q-19 -88 -114 -85h-56q-116 -1 -115 114v97h-80q-21 -179 -261 -238q-26 43 -66 69q228 53 238 169h-113zM369 653v72h216q-20 36 -43 69l97 17q26 -42 49 -86h220
v-72h-164l83 -30q-25 -42 -42 -64h162v-73h-610v73h153q-22 36 -47 70l85 23q30 -39 62 -93h93q33 46 58 94h-372zM48 502v83h99v220h88v-220h85v-83h-85v-296l89 34l38 -69l-296 -131l-42 87l123 46v329h-99zM478 195h307v58h-307v-58zM478 367v-57h307v57h-307z" />
    <glyph glyph-name="uni58F0" unicode="&#x58f0;" 
d="M115 -107q-35 36 -92 58q130 114 123 320v150h711v-330h-97v61h-524q-18 -147 -121 -259zM65 634v79h387v93h99v-93h387v-79h-387v-70h314v-77h-727v77h314v70h-387zM243 260q0 -16 -1 -31h213v115h-212v-84zM760 344h-211v-115h211v115z" />
    <glyph glyph-name="uni5904" unicode="&#x5904;" 
d="M112 -107q-34 45 -80 71q151 80 239 186q-55 82 -92 196q-34 -64 -68 -117q-33 37 -78 60q150 227 204 513l95 -26q-15 -70 -36 -141h213v-76q-18 -248 -120 -410q96 -98 256 -114q131 -14 323 -9q-25 -50 -29 -101q-170 0 -294 15q-197 23 -311 133q-84 -99 -222 -180z
M883 279q-82 129 -169 236v-432h-99v721h99v-243l55 26q95 -108 184 -242zM267 549q-15 -42 -32 -84q34 -143 91 -236q82 137 91 320h-150z" />
    <glyph glyph-name="uni5907" unicode="&#x5907;" 
d="M81 299q-16 41 -55 81q227 32 389 99q-74 47 -136 111q-55 -56 -118 -101q-40 36 -79 52q176 119 264 281l83 -32q-18 -33 -39 -64h411v-72q-85 -103 -201 -174q148 -58 368 -85q-34 -35 -53 -90q-266 54 -410 124q-127 -61 -321 -107h638v-426h-97v46h-452v-46h-96v424
q-46 -10 -96 -21zM686 650h-353q80 -78 174 -127q98 51 179 127zM545 101v-86h180v86h-180zM273 101v-86h180v86h-180zM725 251h-180v-85h180v85zM273 251v-85h180v85h-180z" />
    <glyph glyph-name="uni5916" unicode="&#x5916;" 
d="M128 -83q-38 41 -92 68q178 100 269 230q-59 54 -141 115l71 56q59 -44 116 -94q56 111 67 253h-158q-63 -139 -143 -232q-45 25 -95 34q166 199 224 452l93 -28q-18 -71 -44 -139h219v-78q-24 -419 -386 -637zM903 197q-64 88 -196 237v-540h-100v909h100v-302l43 21
q130 -134 222 -254z" />
    <glyph glyph-name="uni591A" unicode="&#x591a;" 
d="M144 282q-25 45 -64 78q210 32 356 90q-46 44 -100 84l83 44q60 -45 105 -90q115 58 199 140h-327q-82 -83 -188 -147q-38 36 -89 58q205 123 301 278l96 -37q-21 -34 -46 -67h391v-71q-88 -122 -257 -213l76 -31q-22 -30 -51 -59h284v-69q-171 -350 -767 -385
q-21 47 -58 84q267 16 438 85q-47 44 -101 85l80 46q50 -35 109 -89q115 64 182 160h-263q-121 -90 -287 -150q-33 43 -77 69q273 87 418 246q-197 -101 -443 -139z" />
    <glyph glyph-name="uni591C" unicode="&#x591c;" 
d="M408 -104q-34 43 -80 70q132 51 231 133q-70 67 -124 148q-22 -24 -45 -46q-38 28 -87 44v-349h-96v386q-46 -52 -93 -91q-38 39 -85 57q184 158 273 362h-222v87h379q-28 46 -65 92l119 24q46 -56 81 -116h331v-87h-384l87 -44q-11 -29 -23 -56h259v-77
q-41 -188 -158 -326q115 -72 267 -110q-48 -38 -74 -91q-149 47 -263 130q-101 -86 -228 -140zM303 247q165 152 236 363h-222l74 -41q-34 -77 -88 -161v-161zM563 427q-32 -58 -71 -111q58 -86 136 -151q33 36 58 76q-65 50 -139 93l57 57q65 -36 124 -77q25 54 38 113
h-203z" />
    <glyph glyph-name="uni5927" unicode="&#x5927;" 
d="M880 -94q-272 131 -381 417q-74 -271 -374 -423q-40 45 -94 74q343 154 399 470h-341v97h349q5 100 3 264l106 -7q0 -155 -6 -257h367v-97h-357q106 -326 423 -444q-56 -35 -94 -94z" />
    <glyph glyph-name="uni5929" unicode="&#x5929;" 
d="M147 653v92h707v-92h-307q-2 -153 -6 -216h365v-92h-342q119 -264 398 -350q-51 -32 -82 -87q-266 111 -379 364q-85 -246 -380 -370q-31 48 -84 79q319 109 386 364h-334v92h349v3q1 2 1 4q3 63 5 209h-297z" />
    <glyph glyph-name="uni5934" unicode="&#x5934;" 
d="M61 236v93h456q17 57 24 124q18 163 19 351l104 -9q-7 -220 -23 -358q-7 -58 -19 -108h322v-93h-351q-97 -255 -431 -341q-30 49 -74 80q299 74 393 261h-420zM865 -103q-152 129 -284 217l73 68q152 -102 269 -201zM388 371q-130 86 -238 139l61 73q134 -69 220 -129z
M441 552q-116 84 -224 142l63 70q116 -63 205 -131z" />
    <glyph glyph-name="uni593A" unicode="&#x593a;" 
d="M85 591v85h338q21 58 30 134l95 -19q-10 -63 -27 -115h392v-85h-290q100 -118 343 -162q-41 -30 -65 -87q-102 27 -178 64v-101h212v-85h-212v-180q-2 -137 -138 -139q-50 0 -96 8q-8 60 -25 93q75 -10 97 -9q63 -2 61 60v167h-558v85h558v108h87q-129 66 -192 178h-29
q-92 -196 -378 -261q-25 43 -72 75q256 54 343 186h-296zM366 -6q-83 93 -157 148l84 53q73 -53 145 -133z" />
    <glyph glyph-name="uni5947" unicode="&#x5947;" 
d="M818 430q-157 64 -339 119q-79 -79 -271 -120h743v-83h-139v-305q0 -139 -134 -139q-49 0 -94 5q-3 46 -23 95q63 -9 96 -9q61 -1 60 59v294h-668v83h145q-21 45 -62 75q231 34 290 122h-300v82h336q10 42 10 100l99 -9q0 -4 -1 -12q-4 -56 -9 -79h328v-82h-353l-6 -12
q187 -48 323 -99zM182 22v258h406v-258h-406zM272 98h225v106h-225v-106z" />
    <glyph glyph-name="uni5957" unicode="&#x5957;" 
d="M96 639v77h306q22 44 37 96l95 -20q-12 -40 -29 -76h399v-77h-253q123 -127 334 -176q-44 -35 -68 -83q-108 36 -192 89h-375v-55h413v-67h-413v-54h413v-67h-413v-56h590v-77h-250q117 -83 177 -138l-47 -71q-29 27 -64 56l-456 -19q-56 -3 -108 -17l-41 78q47 8 97 46
q40 32 78 65h-271v77h201v273q-75 -44 -168 -77q-23 37 -72 70q234 75 337 203h-257zM447 93q-44 -44 -105 -94l325 12q-18 14 -53 39l-21 15l41 28h-187zM464 639q-34 -54 -78 -97h243q-52 49 -87 97h-78z" />
    <glyph glyph-name="uni5973" unicode="&#x5973;" 
d="M57 477v94h293q49 131 78 243l101 -31q-31 -112 -68 -212h482v-94h-169q-35 -195 -140 -325q139 -69 279 -149l-33 -102q-123 72 -319 175q-148 -129 -410 -183q-25 47 -76 86q242 40 385 148q-118 60 -256 124q54 98 109 226h-256zM337 291q102 -44 201 -93
q100 110 133 279h-247q-46 -112 -87 -186z" />
    <glyph glyph-name="uni597D" unicode="&#x597d;" 
d="M408 -20q-60 56 -110 100q-61 -93 -157 -172q-41 32 -95 46q117 94 180 188q-79 64 -137 107q35 115 64 272h-101v84h116q19 113 28 199l94 -16q-12 -96 -27 -183h166v-75q-12 -217 -83 -365q72 -60 116 -100zM445 302v90h213v112q82 77 140 151h-310v87h441v-77
q-81 -109 -175 -200v-73h204v-90h-204v-254q4 -147 -141 -143q-41 0 -83 5q-2 53 -27 98q64 -11 93 -11q65 -3 62 68v237h-213zM340 521h-92q-30 -160 -54 -238q36 -27 77 -59q55 115 69 297z" />
    <glyph glyph-name="uni5982" unicode="&#x5982;" 
d="M545 -75v776h368v-776h-95v84h-177v-84h-96zM135 -108q-33 35 -86 58q131 86 203 185q-100 80 -154 117q37 109 76 300h-118v87h134q17 95 26 174l95 -19q-9 -72 -23 -155h189v-84q-8 -234 -96 -399q69 -55 140 -116l-53 -92q-45 45 -140 124q-77 -103 -193 -180z
M641 611v-512h177v512h-177zM208 290q56 -41 96 -72q66 130 81 334h-114q-31 -153 -63 -262z" />
    <glyph glyph-name="uni5986" unicode="&#x5986;" 
d="M907 -103q-111 85 -217 160q-100 -101 -283 -163q-21 49 -62 87q167 50 260 134q-93 63 -182 115q46 111 87 241h-132v93h161q34 120 62 244l96 -29q-26 -111 -56 -215h317v-93h-87q-34 -215 -118 -338q86 -57 208 -144zM91 71l-67 74l217 217v441h97v-907h-97v337z
M669 187q75 105 106 284h-162q-35 -110 -71 -205q61 -36 127 -79zM134 412q-40 127 -96 250l90 24q52 -115 90 -236z" />
    <glyph glyph-name="uni5B50" unicode="&#x5b50;" 
d="M47 298v93h424v118q103 62 209 149h-515v91h670v-80q-118 -111 -260 -205v-73h379v-93h-379v-240q3 -157 -151 -154q-36 0 -98 8q-8 62 -29 102q66 -9 104 -9q72 -2 70 72v221h-424z" />
    <glyph glyph-name="uni5B54" unicode="&#x5b54;" 
d="M84 230l-54 84l210 63v144q81 73 129 138h-286v87h409v-78q-57 -87 -152 -179v-82l150 45l39 -77l-189 -62v-279q-1 -127 -135 -128q-46 0 -80 5q-4 54 -32 100q59 -8 98 -9q51 -2 49 49v230zM714 -78q-145 -1 -144 146v727h103v-712q-2 -63 59 -61h62q54 -3 68 66
q10 45 19 101q40 -41 86 -55q-6 -42 -17 -88q-30 -127 -146 -124h-90z" />
    <glyph glyph-name="uni5B58" unicode="&#x5b58;" 
d="M217 -105v387q-55 -53 -116 -95q-31 38 -86 68q190 118 310 340h-243v89h286q27 67 45 136l98 -31q-18 -63 -34 -105h460v-89h-498q-53 -110 -123 -201v-499h-99zM375 164v90h261v60q63 44 112 90h-314v88h448v-82q-77 -76 -148 -129v-27h213v-90h-213v-127
q0 -131 -128 -132q-40 0 -89 6q0 52 -27 102q66 -11 91 -11q56 -1 55 52v110h-261z" />
    <glyph glyph-name="uni5B66" unicode="&#x5b66;" 
d="M54 127v86h424v61q74 38 137 84h-368v83h511v-72q-74 -67 -178 -128v-28h364v-86h-364v-96q2 -134 -133 -132q-40 0 -94 6q-7 54 -26 95q63 -9 99 -9q52 0 52 52v84h-424zM82 380v227h181q-53 76 -117 147l90 41q68 -78 118 -151l-53 -37h315q95 108 142 195l94 -43
q-42 -67 -117 -152h183v-227h-99v142h-638v-142h-99zM490 614q-39 77 -103 164l92 32q54 -71 95 -149z" />
    <glyph glyph-name="uni5B89" unicode="&#x5b89;" 
d="M872 -108q-179 81 -323 138q-149 -95 -412 -138q-33 54 -74 84q241 32 372 99q-92 36 -237 90q47 66 98 152h-246v89h296q45 87 76 169l90 -46q-28 -67 -56 -123h490v-89h-183q-40 -132 -129 -219q138 -52 273 -113zM106 473v208h348q-34 51 -74 100l115 29
q53 -65 93 -129h303v-208h-98v120h-588v-120h-99zM530 136q87 72 127 181h-249q-33 -58 -71 -115q94 -30 193 -66z" />
    <glyph glyph-name="uni5B8C" unicode="&#x5b8c;" 
d="M695 -80q-140 -2 -138 132v197h-110q0 -30 -2 -53q-28 -246 -318 -305q-30 51 -71 81q277 44 293 237v5q2 22 2 35h-245v86h792v-86h-244v-187q1 -51 51 -52h78q55 -2 69 62q10 38 15 68q39 -44 78 -57q-7 -33 -16 -62q-28 -103 -139 -101h-95zM103 471v226h358
q-40 61 -62 89l112 28q44 -58 76 -117h312v-226h-94v141h-606v-141h-96zM255 433v84h493v-84h-493z" />
    <glyph glyph-name="uni5B98" unicode="&#x5b98;" 
d="M735 -103v53h-426v-54h-100v642h578v-251h-478v-76h523v-314h-97zM82 490v213h377q-31 57 -59 92l109 19q48 -72 67 -111h341v-208h-97v126h-641v-131h-97zM735 130h-426v-98h426v98zM309 457v-89h381v89h-381z" />
    <glyph glyph-name="uni5B9A" unicode="&#x5b9a;" 
d="M207 407v87h588v-87h-228v-134h278v-85h-278v-159q27 -3 59 -5q158 -10 336 -1q-25 -46 -32 -103q-179 1 -317 11q-237 15 -342 150q-49 -103 -141 -186q-41 35 -97 51q180 145 205 378l95 -23q-9 -66 -26 -124q65 -92 160 -125v355h-260zM94 452v235h368q-31 67 -58 107
l116 20q39 -70 64 -127h319v-234h-99v148h-610v-149h-100z" />
    <glyph glyph-name="uni5B9D" unicode="&#x5b9d;" 
d="M82 478v215h373q-39 62 -70 103l121 20q41 -51 81 -123h328v-215h-87v-67h-284v-130h260v-87h-260v-176h199q-60 65 -129 121l73 54q72 -59 122 -114l-48 -61h164v-87h-852v87h371v176h-250v87h250v130h-275v67h-87zM182 606v-109h633v109h-633z" />
    <glyph glyph-name="uni5B9E" unicode="&#x5b9e;" 
d="M59 146v89h355q-87 57 -215 126l58 63q110 -56 195 -115l-34 -74h99q27 63 37 143q13 90 18 196l98 -11q-5 -110 -21 -213q-10 -63 -27 -115h321v-89h-360q-102 -195 -419 -258q-20 48 -65 84q263 47 365 174h-405zM802 462v142h-603v-141h-98v229h357q-27 44 -60 90
l110 30q45 -62 77 -120h314v-230h-97zM867 -112q-145 95 -294 170l66 65q162 -79 266 -148zM476 381q-94 66 -197 122l56 64q98 -50 176 -108z" />
    <glyph glyph-name="uni5BA4" unicode="&#x5ba4;" 
d="M804 224q-34 29 -70 57l-187 -8v-87h293v-81h-293v-92h386v-83h-866v83h382v92h-289v81h289v82l-164 -7q-60 -4 -90 -14l-35 82q45 8 86 37q50 33 119 93h-170v83h609v-83h-166q96 -62 215 -155zM83 495v204h369q-25 44 -58 93l114 20q31 -45 68 -113h339v-204h-97v121
h-638v-121h-97zM494 459q-68 -61 -146 -115l287 12q-38 27 -77 54l68 49h-132z" />
    <glyph glyph-name="uni5BB9" unicode="&#x5bb9;" 
d="M205 -104v296q-57 -24 -115 -43q-18 38 -64 74q334 97 466 275l80 -44q-9 -11 -19 -23q169 -141 422 -188q-43 -38 -58 -85q-64 17 -124 39v-301h-97v57h-394v-57h-97zM96 511v195h359q-38 51 -68 84l111 25q52 -60 83 -109h320v-184h-98v102h-608v-113h-99zM302 155
v-122h394v122h-394zM154 359q-34 45 -72 67q175 62 290 168l69 -55q-123 -111 -287 -180zM868 360q-136 83 -308 173l66 58q176 -89 283 -155zM499 375q-84 -78 -205 -141h413q-125 60 -208 141z" />
    <glyph glyph-name="uni5BBD" unicode="&#x5bbd;" 
d="M83 528v187h366q-19 27 -53 71l111 26q36 -47 68 -97h340v-185h-85v-60h-163v-67h-93v67h-151v-67h-94v67h-162v58h-84zM632 -80q-126 -1 -125 114v91q-77 -205 -405 -235q-16 43 -56 82q342 25 384 216q12 41 15 99l93 -11q-3 -40 -15 -94h73v-137q-1 -43 46 -42h136
q65 -4 79 61q3 13 9 45q4 16 5 23q30 -41 76 -62q-6 -29 -15 -56q-17 -54 -47 -74t-95 -20h-158zM202 79v308h595v-307h-96v229h-402v-230h-97zM177 634v-86h152v72h94v-72h151v72h93v-72h153v86h-643z" />
    <glyph glyph-name="uni5BC6" unicode="&#x5bc6;" 
d="M513 477q-48 49 -122 107l66 44h-258v-100q2 5 5 9l71 -49q-48 -101 -134 -189l-70 61q56 52 113 142h-82v207h358q-35 45 -68 82l115 22q55 -63 83 -104h314v-198h-97v117h-341q49 -37 104 -90zM427 210q-68 -1 -95 29q-116 -51 -243 -78q-22 41 -63 70q149 30 283 88
v220h88v-178q179 96 279 221l75 -47q-112 -135 -294 -233q-12 -7 -35 -14q11 -3 24 -3h157q62 -4 81 62q9 28 16 59q39 -42 77 -57q-4 -17 -16 -49q-2 -5 -3 -7q-33 -88 -137 -83h-194zM170 -69v227h97v-143h192v166h98v-166h193v155h97v-274h-97v35h-580zM892 282
q-64 82 -159 172l82 43q76 -70 140 -151z" />
    <glyph glyph-name="uni5BCC" unicode="&#x5bcc;" 
d="M139 -105v369h719v-369h-96v47h-526v-47h-97zM217 309v188h564v-188h-564zM77 541v184h371q-16 26 -49 72l105 17q35 -45 59 -89h359v-184h-96v112h-653v-112h-96zM215 542v66h569v-66h-569zM315 375h368v56h-368v-56zM545 72v-62h217v62h-217zM236 72v-62h216v62h-216z
M762 198h-217v-61h217v61zM236 198v-61h216v61h-216z" />
    <glyph glyph-name="uni5BF8" unicode="&#x5bf8;" 
d="M61 504v94h544v206h105v-206h230v-94h-230v-447q3 -156 -148 -153q-45 0 -108 7q-3 55 -24 106q73 -11 113 -11q64 -2 62 65v433h-544zM372 139q-92 142 -175 232l92 48q88 -98 164 -213z" />
    <glyph glyph-name="uni5BF9" unicode="&#x5bf9;" 
d="M427 12q-71 97 -123 161q-69 -128 -184 -237q-37 34 -93 54q133 110 211 265q-70 85 -168 192l77 51q67 -71 131 -146q43 123 53 263h-257v91h352v-82q-16 -203 -77 -356q82 -100 139 -180zM460 517v92h282v195h99v-195h119v-92h-119v-481q-2 -131 -143 -133q-41 0 -92 5
q0 54 -23 99q57 -8 94 -9q68 -3 65 65v454h-282zM598 180q-47 89 -128 203l84 37q62 -80 119 -184z" />
    <glyph glyph-name="uni5BFB" unicode="&#x5bfb;" 
d="M175 602h555v78h-583v82h682v-401h-87v-86h213v-85h-213v-152q-1 -136 -128 -137q-50 0 -98 6q-4 48 -28 94q74 -10 98 -10q56 -1 55 59v140h-598v85h598v86h-498v82h587v79h-555v80zM352 -14q-72 84 -144 146l86 49q81 -66 134 -132z" />
    <glyph glyph-name="uni5BFC" unicode="&#x5bfc;" 
d="M307 328q-141 -1 -140 122v316h631v-260h-532v-43q0 -52 56 -52h435q62 -1 79 56q10 29 19 73q33 -31 81 -52q-6 -27 -15 -55q-31 -109 -151 -105h-32v-83h216v-84h-216v-131q1 -131 -127 -130q-50 0 -92 6q-7 54 -27 94q68 -10 92 -10q56 -2 54 54v117h-592v84h592v83
h-331zM266 684v-97h433v97h-433zM373 -33q-68 72 -154 136l84 55q74 -51 141 -120z" />
    <glyph glyph-name="uni5C06" unicode="&#x5c06;" 
d="M440 317q-23 41 -68 71q121 32 208 75q-45 40 -94 73l68 53q44 -30 104 -82q81 53 132 120h-241q-58 -57 -133 -105q-27 36 -74 57q165 102 235 231l87 -33q-21 -36 -44 -68h291v-77q-144 -225 -471 -315zM94 77l-70 70l211 215v441h93v-908h-93v336zM365 231v83h372v116
h95v-116h123v-83h-123v-195q-2 -129 -126 -131q-39 0 -93 6q-5 52 -30 93q68 -9 104 -9q51 -1 50 54v182h-372zM140 412q-38 118 -102 248l87 26q58 -118 97 -233zM547 24q-53 74 -125 146l83 42q67 -63 118 -133z" />
    <glyph glyph-name="uni5C0F" unicode="&#x5c0f;" 
d="M136 77q-52 22 -111 28q120 196 177 482l100 -36q-60 -287 -166 -474zM413 -98q-47 0 -96 7q-3 58 -25 102q50 -9 92 -9q73 -2 71 65v735h106v-750q2 -152 -148 -150zM880 75q-104 279 -209 482l103 26q111 -218 197 -450z" />
    <glyph glyph-name="uni5C11" unicode="&#x5c11;" 
d="M137 -109q-22 51 -70 93q498 57 661 407l80 -72q-184 -359 -671 -428zM443 189v612h105v-612h-105zM870 290q-92 155 -226 328l97 40q136 -176 211 -306zM161 254q-48 29 -107 38q139 168 200 368l94 -40q-70 -217 -187 -366z" />
    <glyph glyph-name="uni5C31" unicode="&#x5c31;" 
d="M796 -88q-111 -2 -109 119v263q-37 -240 -200 -402q-37 35 -87 49q215 194 211 516h-94v82h95v266h93v-266h236v-82h-237q0 -30 -2 -56h73v-362q-1 -43 34 -42h23q32 -2 42 58q3 14 8 52q3 17 4 25q35 -35 76 -49q-3 -36 -9 -61q-20 -114 -112 -110h-45zM108 258v255h373
v-255h-132v-244q3 -111 -101 -108q-35 0 -63 4q-3 44 -20 85q40 -6 56 -6q39 -2 37 43v226h-150zM45 581v80h234q-31 52 -81 118l103 29q45 -56 83 -118l-72 -29h222v-80h-489zM102 -29q-36 24 -84 34q78 94 120 211l79 -29q-43 -127 -115 -216zM198 333h194v105h-194v-105z
M828 571q-50 83 -106 150l76 35q55 -64 99 -138zM443 53q-33 69 -76 133l75 30q36 -50 71 -119z" />
    <glyph glyph-name="uni5C3A" unicode="&#x5c3a;" 
d="M890 -87q-329 130 -448 475h-156v-24q-1 -288 -172 -468q-44 37 -95 55q162 155 162 419v385h654v-367h-292q127 -289 435 -381q-55 -39 -88 -94zM286 662v-181h446v181h-446z" />
    <glyph glyph-name="uni5C3D" unicode="&#x5c3d;" 
d="M901 109q-261 110 -366 331h-250q-11 -206 -167 -356q-40 35 -95 55q173 144 164 368v254h647v-321h-193q100 -170 336 -241q-44 -32 -76 -90zM288 672v-143h446v143h-446zM670 -115q-257 110 -430 159l53 82q195 -56 399 -147zM628 109q-168 84 -288 127l55 72
q110 -37 257 -111z" />
    <glyph glyph-name="uni5C42" unicode="&#x5c42;" 
d="M113 -103q-39 38 -92 59q133 158 128 443v369h730v-268h-631v-118q2 -290 -135 -485zM255 173v83h693v-83h-380q-65 -92 -128 -157l306 14q-65 69 -94 98l80 42q124 -117 199 -212l-65 -67q-24 28 -48 58l-426 -21q-51 -3 -93 -16l-43 85q52 14 91 55q43 41 105 121h-197
zM248 685v-102h533v102h-533zM334 339v81h521v-81h-521z" />
    <glyph glyph-name="uni5C4F" unicode="&#x5c4f;" 
d="M291 311v81h169q-32 33 -93 90l72 39h-192v-127q4 -297 -132 -495q-49 34 -98 43q137 183 130 455v371h734v-247h-143l77 -33q-36 -50 -78 -96h165v-81h-135v-112h180v-82h-180v-218h-96v218h-159q-22 -139 -179 -226q-32 32 -87 53q142 70 168 173h-164v82h175v12v100
h-134zM247 685v-83h537v83h-537zM552 426l-40 -34h110q71 86 98 129h-260q51 -43 92 -95zM520 208v-9h151v112h-151v-103z" />
    <glyph glyph-name="uni5C9B" unicode="&#x5c9b;" 
d="M111 -7v213h96v-129h151v155h96v-155h152v128h96v-208q6 0 17 -1h16q67 -2 68 66l10 195h-594v463h155q37 51 56 100l100 -28q-18 -42 -39 -72h290l-9 -216q-4 -125 -130 -125q-38 0 -73 5q0 35 -13 67l-39 -38q-71 84 -151 148l76 44q91 -74 138 -132l-9 -9q27 -3 48 -3
q56 -1 57 54l5 121h-364v-294h599l-16 -292q-6 -150 -153 -149q-43 0 -97 7q-3 49 -18 85h-521z" />
    <glyph glyph-name="uni5DE5" unicode="&#x5de5;" 
d="M129 629v95h741v-95h-318v-576h389v-95h-884v95h389v576h-317z" />
    <glyph glyph-name="uni5DE7" unicode="&#x5de7;" 
d="M434 646v89h509v-89h-311l-28 -220h305l-20 -363q-12 -150 -167 -153q-30 0 -94 7q-11 1 -17 2q-3 55 -26 99q70 -11 118 -11q84 -2 88 82l15 248h-312l39 309h-99zM61 627v89h345v-89h-114v-434l136 41l41 -76l-390 -130l-49 86l163 49v464h-132z" />
    <glyph glyph-name="uni5DEE" unicode="&#x5dee;" 
d="M134 606v80h215q-55 61 -91 92l92 35q54 -47 102 -104l-38 -23h159q56 64 95 129l91 -32q-29 -44 -73 -97h204v-80h-364q-6 -39 -14 -75h322v-77h-343q-13 -40 -29 -76h476v-80h-517q-27 -45 -61 -85h480v-78h-218v-129h307v-79h-740v79h335v129h-197v42
q-89 -89 -223 -159q-20 31 -76 62q190 91 284 218h-225v80h275q18 36 32 76h-209v77h231q8 36 14 75h-296z" />
    <glyph glyph-name="uni5DF2" unicode="&#x5df2;" 
d="M324 -69q-170 -4 -166 156v446h103v-108h451v229h-596v94h700v-417h-555v-230q0 -72 69 -73h388q77 -5 97 80q11 38 21 91q40 -45 94 -63q-12 -54 -20 -82q-34 -127 -181 -123h-405z" />
    <glyph glyph-name="uni5DF7" unicode="&#x5df7;" 
d="M381 -78q-137 0 -137 120v210q-71 -51 -159 -91q-33 40 -74 65q201 80 316 213h-264v84h241v100h-179v85h179v96h97v-96h194v96h97v-96h180v-85h-180v-100h240v-84h-252q105 -116 311 -179q-45 -32 -73 -80q-102 42 -181 100v-175h-396v-49q0 -50 52 -50h295q68 -2 84 61
q0 1 1 3q10 36 14 59q35 -36 81 -55q-10 -39 -16 -55q-27 -101 -152 -97h-319zM341 269v-87h300v87h-300zM429 439q-34 -49 -76 -93h303q-45 42 -79 93h-148zM401 623v-100h194v100h-194z" />
    <glyph glyph-name="uni5E03" unicode="&#x5e03;" 
d="M73 589v89h319q25 66 41 138l96 -27q-14 -57 -34 -111h459v-89h-495q-35 -79 -90 -161h141v107h97v-107h257v-311q-1 -128 -126 -129q-29 0 -69 5q1 45 -17 91q41 -6 70 -6q49 -2 47 50v212h-162v-445h-97v445h-154v-357h-96v307q-66 -69 -142 -120q-33 38 -85 63
q212 140 320 356h-280z" />
    <glyph glyph-name="uni5E08" unicode="&#x5e08;" 
d="M399 663v85h546v-85h-229v-131h198v-378q1 -118 -103 -117q-21 0 -57 4q-5 45 -22 85q29 -4 55 -4q40 -1 39 47v280h-110v-554h-91v554h-104v-415h-88v498h192v131h-226zM187 -109q-35 33 -89 48q105 97 136 189q35 90 34 277v400h91v-401q13 -355 -172 -513zM100 136
v571h88v-571h-88z" />
    <glyph glyph-name="uni5E0C" unicode="&#x5e0c;" 
d="M64 383v83h321q30 50 50 105q-121 -50 -237 -85q-25 32 -69 63q147 45 283 100q-112 41 -227 77l53 72q87 -25 284 -100q124 57 209 114l73 -54q-72 -48 -178 -101q156 -62 228 -96l-23 -82q-155 70 -309 129q-22 -10 -66 -29q-13 -5 -19 -8l87 -37q-15 -35 -33 -68h458
v-83h-509q-32 -47 -78 -95h129v63h99v-63h251v-213q0 -117 -118 -118q-27 0 -56 2q-3 45 -25 86q30 -5 59 -5q45 -1 44 47v120h-155v-312h-99v312h-149v-253h-97v231q-66 -46 -125 -75q-39 38 -84 58q183 86 290 215h-262z" />
    <glyph glyph-name="uni5E26" unicode="&#x5e26;" 
d="M450 -105v300h-163v-239h-97v324h260v71h98v-71h268v-206q0 -121 -116 -121q-29 0 -57 3q-5 46 -26 87q33 -5 61 -5q41 -1 40 47v110h-170v-300h-98zM64 607v85h162v112h93v-112h133v112h93v-112h134v112h93v-112h162v-85h-162v-105h-93v105h-134v-100h-93v100h-133v-105
h-93v105h-162zM71 290v180h859v-180h-98v95h-664v-95h-97z" />
    <glyph glyph-name="uni5E2E" unicode="&#x5e2e;" 
d="M458 -105v270h-164v-221h-94v276q-36 -24 -80 -43q-32 39 -73 63q130 49 184 136h-165v77h200q9 31 14 68h-153v74h158v65h-188v77h188v68h92v-68h168v-77h-168v-65h143v-74h-147q-4 -36 -11 -68h183v-77h-207q-34 -78 -102 -130h222v76h96v-76h275v-186
q0 -118 -125 -118q-31 0 -66 5q-2 43 -19 83q41 -6 67 -6q50 -1 49 48v93h-181v-270h-96zM591 288v475h325v-63l-80 -143q104 -64 102 -141q-2 -106 -126 -108q-28 0 -76 8q-2 43 -18 82q5 -1 14 -2q45 -7 60 -7q48 0 48 40q-7 56 -115 106l85 151h-128v-398h-91z" />
    <glyph glyph-name="uni5E38" unicode="&#x5e38;" 
d="M723 -43q-32 0 -67 8q-1 43 -19 83q40 -9 67 -9q49 -1 48 46v51h-205v-241h-100v241h-197v-174h-96v251h293v69h-205v221h513v-221h-208v-69h301v-139q-1 -116 -125 -117zM78 447v192h225q-73 63 -144 107l73 50q80 -48 140 -105l-54 -52h130v168h100v-168h131
q-28 26 -62 44q75 44 148 114l69 -53q-62 -60 -137 -105h223v-192h-99v119h-645v-119h-98zM341 353h315v78h-315v-78z" />
    <glyph glyph-name="uni5E55" unicode="&#x5e55;" 
d="M71 670v70h232v65h92v-65h204v65h93v-65h233v-70h-233v-52h116v-270h-330q-15 -27 -33 -51h493v-70h-216q103 -69 258 -97q-38 -32 -58 -78q-72 22 -130 49v-71q2 -105 -106 -104q-39 0 -73 5q-1 42 -15 76q38 -7 68 -7q38 -1 37 38v43h-161v-186h-90v186h-148v-152h-90
v168q-60 -33 -123 -58q-27 41 -67 66q141 47 239 122h-202v70h279q22 24 40 51h-193v270h116v52h-232zM280 410h435v46h-435v-46zM280 556v-45h435v45h-435zM385 227q-42 -42 -92 -78h159v54h90v-54h165q-56 36 -101 78h-221zM395 670v-52h204v52h-204z" />
    <glyph glyph-name="uni5E73" unicode="&#x5e73;" 
d="M139 657v94h721v-94h-309v-350h405v-93h-405v-321h-105v321h-404v93h404v350h-307zM679 354q-32 33 -80 50q112 97 191 207l75 -50q-81 -113 -186 -207zM320 355q-93 109 -196 200l81 50q97 -86 177 -178z" />
    <glyph glyph-name="uni5E74" unicode="&#x5e74;" 
d="M45 108v93h178v267h287v149h-211q-63 -106 -154 -198q-38 39 -98 52q160 146 239 350l94 -40q-15 -36 -31 -71h547v-93h-284v-149h254v-92h-254v-175h343v-93h-343v-213h-102v213h-465zM324 376v-175h186v175h-186z" />
    <glyph glyph-name="uni5E76" unicode="&#x5e76;" 
d="M115 525v89h241q-63 80 -132 148l91 44q86 -86 126 -141l-65 -51h162q86 97 146 197l93 -46q-56 -81 -118 -151h230v-89h-167v-199h221v-89h-221v-336h-101v336h-233q-21 -204 -207 -349q-38 37 -96 54q184 126 201 295h-229v89h236q1 15 1 33v166h-179zM395 362
q0 -19 -1 -36h227v199h-226v-163z" />
    <glyph glyph-name="uni5E7B" unicode="&#x5e7b;" 
d="M87 -18l-41 91q36 14 65 50q70 87 162 232l-142 -11q-32 -3 -68 -16l-29 84q39 14 69 63q108 174 166 326l98 -32q-84 -181 -178 -333l139 11q33 57 76 143l92 -35q-131 -246 -285 -454l190 28q-38 95 -57 135l88 24q55 -119 113 -287l-85 -40q-11 36 -29 85l-268 -44
q-38 -6 -76 -20zM745 -82q-41 0 -93 6q-3 57 -26 100q52 -9 98 -9q74 -1 74 79l12 531h-333v90h434l-14 -642q-4 -154 -152 -155z" />
    <glyph glyph-name="uni5E7D" unicode="&#x5e7d;" 
d="M84 -50v718h94v-231q13 10 25 34q61 118 114 283l76 -27q-2 -6 -7 -17q-71 -174 -115 -257l64 4q29 61 50 115l66 -31q-54 -122 -115 -233l62 13q37 -109 55 -181v663h94v-362q16 13 29 40q57 115 108 270l79 -29q-72 -176 -120 -264l62 4q27 59 50 112l66 -30v124h95
v-773h-95v55h-737zM768 96q-6 29 -14 61l-128 -20q-31 -5 -53 -16l-26 57v-143h274v84zM397 93q-5 26 -14 63l-126 -22q-26 -5 -52 -17l-27 56v-138h275v82zM821 538q-59 -128 -112 -224l60 12q27 -76 52 -166v378zM569 376l-22 40v-221q25 17 46 51q31 48 78 145l-53 -4
q-29 -4 -49 -11zM198 371l-20 34v-214q23 13 46 51q40 68 77 144l-54 -4q-29 -4 -49 -11zM707 311q-27 -51 -58 -101l88 12q-17 58 -30 89zM335 307q-28 -51 -57 -100l87 12q-11 38 -30 88z" />
    <glyph glyph-name="uni5E7F" unicode="&#x5e7f;" 
d="M127 -106q-47 34 -101 50q127 162 125 453v265h372q-45 54 -101 107l102 46q58 -51 111 -118l-59 -35h347v-95h-666v-179q3 -305 -130 -494z" />
    <glyph glyph-name="uni5E8F" unicode="&#x5e8f;" 
d="M526 -98q-38 0 -75 5q-3 48 -23 90q36 -7 76 -7q49 -2 47 48v185h-292v86h343q-99 48 -193 83l55 62q53 -21 127 -55q63 40 110 77h-389v83h542v-67q-79 -67 -178 -132q10 -5 27 -13q14 -7 21 -10l-19 -28h228v-75l-44 -128q-47 10 -95 7l37 110h-182v-201
q1 -121 -123 -120zM120 -101q-49 31 -97 47q111 164 106 485v278h367q-34 46 -64 80l114 25q42 -46 81 -105h311v-84h-710v-199q6 -342 -108 -527z" />
    <glyph glyph-name="uni5E93" unicode="&#x5e93;" 
d="M278 441v83h167q23 45 41 92l96 -25q-14 -33 -29 -67h354v-83h-395q-43 -82 -86 -140h140v105h99v-105h206v-81h-206v-93h288v-83h-288v-149h-99v149h-327v83h327v93h-255v79q46 65 91 142h-124zM116 -102q-57 35 -98 46q116 159 112 479v281h371q-23 38 -56 83l111 26
q41 -53 70 -109h314v-84h-711v-202q5 -341 -113 -520z" />
    <glyph glyph-name="uni5E94" unicode="&#x5e94;" 
d="M119 -101q-45 30 -103 43q127 172 126 438v296h366q-36 61 -75 108l112 26q49 -62 89 -134h297v-89h-689v-205q1 -297 -123 -483zM234 -67v89h380q120 237 184 478l96 -41q-67 -226 -170 -437h225v-89h-715zM397 85q-63 177 -140 333l100 17q67 -131 130 -303zM582 178
q-56 178 -123 319l99 17q53 -110 113 -292z" />
    <glyph glyph-name="uni5E9E" unicode="&#x5e9e;" 
d="M261 382v83h178q1 55 1 51v32v47l94 -2v-77q0 -29 -1 -51h211q-61 59 -111 93l67 45q50 -33 113 -94l-36 -44h151v-83h-248v-184q76 78 122 165l79 -44q-75 -136 -201 -247v-3q1 -57 55 -57h63q54 -4 69 58q9 36 15 77q36 -40 71 -52q-5 -36 -14 -66q-29 -103 -130 -103
h-89q-103 0 -126 78q-59 -41 -121 -73q-27 42 -73 65q98 48 188 118v268h-61q-18 -328 -268 -487q-31 40 -83 59q236 145 257 428h-172zM112 -106q-51 36 -94 47q118 151 112 423v341h367q-26 43 -55 84l108 24q38 -51 69 -108h311v-85h-703v-253q5 -293 -115 -473z" />
    <glyph glyph-name="uni5EA6" unicode="&#x5ea6;" 
d="M109 -108q-44 29 -94 43q121 161 115 432v353h359q-33 52 -53 78l113 16q33 -42 63 -94h307v-82h-148v-80h143v-81h-143v-152h-394v152h-149v-108q5 -296 -119 -477zM912 -102q-201 28 -332 90q-138 -67 -332 -96q-19 46 -60 81q175 22 296 68q-91 61 -158 151h-50v80
h562v-71q-64 -94 -162 -159q117 -41 288 -56q-36 -40 -52 -88zM714 192h-278q62 -66 141 -107q82 45 137 107zM472 638v-80h204v80h-204zM472 401h204v76h-204v-76zM228 638v-80h149v80h-149z" />
    </font>
</defs>
</svg>
