<?xml version="1.0" encoding="UTF-8" standalone="no"?>
<svg width="153px" height="46px" viewBox="0 0 153 46" version="1.1" xmlns="http://www.w3.org/2000/svg" xmlns:xlink="http://www.w3.org/1999/xlink">
    <!-- Generator: Sketch 46 (44423) - http://www.bohemiancoding.com/sketch -->
    <title>按钮悬停</title>
    <desc>Created with Sketch.</desc>
    <defs></defs>
    <g id="产品站" stroke="none" stroke-width="1" fill="none" fill-rule="evenodd">
        <g id="首页_1920PX" transform="translate(-882.000000, -3738.000000)">
            <g id="P4" transform="translate(0.000000, 3240.000000)">
                <g id="text" transform="translate(610.000000, 120.000000)">
                    <g id="按钮悬停" transform="translate(272.000000, 378.000000)">
                        <rect id="Rectangle-5" fill="#05B570" x="0" y="0" width="153" height="46" rx="23"></rect>
                        <path d="M37.566,19.046 L37.566,17.498 L39.798,17.498 L39.798,14.528 L41.508,14.528 L41.508,17.498 L43.938,17.498 L43.938,14.528 L45.648,14.528 L45.648,17.498 L47.79,17.498 L47.79,19.046 L45.648,19.046 L45.648,22.034 L48.096,22.034 L48.096,23.6 L45.648,23.6 L45.648,27.884 L43.938,27.884 L43.938,23.6 L41.346,23.6 C41.1779992,25.196008 40.5780052,26.5999939 39.546,27.812 C39.0779977,27.4759983 38.5140033,27.2360007 37.854,27.092 C38.862005,25.9879945 39.4499992,24.8240061 39.618,23.6 L37.224,23.6 L37.224,22.034 L39.762,22.034 C39.7860001,21.5659977 39.798,21.0380029 39.798,20.45 L39.798,19.046 L37.566,19.046 Z M33.696,30.566 L32.31,29.378 C33.2700048,28.3339948 34.0559969,27.5420027 34.668,27.002 L34.668,21.98 L32.436,21.98 L32.436,20.378 L36.342,20.378 L36.342,26.894 C37.5060058,27.8780049 38.8979919,28.4239995 40.518,28.532 C41.526005,28.6280005 42.7589927,28.673 44.217,28.667 C45.6750073,28.661 47.2139919,28.5980006 48.834,28.478 C48.4979983,29.1740035 48.3120002,29.8039972 48.276,30.368 C47.0519939,30.4160002 45.7950065,30.4340001 44.505,30.422 C43.2149936,30.4099999 42.0960047,30.3740003 41.148,30.314 C38.8319884,30.2659998 36.972007,29.6300061 35.568,28.406 C34.967997,28.9580028 34.3440032,29.6779956 33.696,30.566 Z M41.508,20.45 C41.508,21.0260029 41.4960001,21.5539976 41.472,22.034 L43.938,22.034 L43.938,19.046 L41.508,19.046 L41.508,20.45 Z M35.694,19.082 C34.8299957,17.881994 33.9480045,16.8320045 33.048,15.932 L34.65,15.068 C35.5140043,15.9560044 36.3059964,16.903995 37.026,17.912 L35.694,19.082 Z M50.454,23.024 L50.454,21.206 L66.51,21.206 L66.51,23.024 L50.454,23.024 Z M68.382,22.07 L68.382,20.54 L71.622,20.54 L71.622,15.932 L73.332,15.932 L73.332,20.54 L76.176,20.54 L76.176,14.546 L77.904,14.546 L77.904,16.706 L82.944,16.706 L82.944,18.218 L77.904,18.218 L77.904,20.54 L84.564,20.54 L84.564,22.07 L68.382,22.07 Z M76.158,27.056 L76.158,22.556 L77.922,22.556 L77.922,26.876 C79.6500086,25.9039951 80.9639955,24.6740074 81.864,23.186 L83.322,24.086 C80.9579882,28.0700199 76.3680341,30.3499971 69.552,30.926 C69.2639986,30.2539966 68.922002,29.720002 68.526,29.324 C72.1380181,29.0839988 75.1559879,28.3280064 77.58,27.056 L76.158,27.056 Z M71.064,27.488 C70.667998,27.1399983 70.1340034,26.8520011 69.462,26.624 C70.8420069,25.4839943 71.927996,24.2480067 72.72,22.916 L74.142,23.744 C73.2659956,25.2080073 72.2400059,26.4559948 71.064,27.488 Z M92.952,30.746 C92.5919982,30.746 92.0340038,30.7040004 91.278,30.62 C91.2059996,29.9239965 91.0260014,29.2940028 90.738,28.73 C91.4340035,28.8380005 92.0879969,28.892 92.7,28.892 C93.5400042,28.9160001 93.9480001,28.5020043 93.924,27.65 L93.924,20.63 C95.6400086,19.5979948 97.1579934,18.5120057 98.478,17.372 L87.552,17.372 L87.552,15.68 L101.304,15.68 L101.304,17.174 C99.7319921,18.7100077 97.8960105,20.1619932 95.796,21.53 L95.796,28.064 C95.8200001,29.8760091 94.8720096,30.7700001 92.952,30.746 Z M108.144,29.522 L108.144,26.678 L106.812,26.678 C106.703999,28.286008 106.344003,29.6959939 105.732,30.908 C105.251998,30.6799989 104.718003,30.5060006 104.13,30.386 C104.598002,29.5459958 104.918999,28.724004 105.093,27.92 C105.267001,27.115996 105.354,26.0540066 105.354,24.734 L105.354,20.126 L105.318,20.162 C104.969998,19.765998 104.526003,19.4480012 103.986,19.208 C105.510008,17.7199926 106.613997,16.1060087 107.298,14.366 L108.756,14.942 C108.635999,15.2780017 108.492001,15.6139983 108.324,15.95 L111.888,15.95 L111.888,17.192 L110.574,19.136 L112.32,19.136 L112.32,25.346 C113.028004,24.349995 113.525999,23.150007 113.814,21.746 L115.182,22.178 C115.11,22.4780015 115.032,22.7839984 114.948,23.096 L116.262,23.096 L116.262,21.602 L117.846,21.602 L117.846,23.096 L120.294,23.096 L120.294,24.554 L117.846,24.554 L117.846,26.48 L120.672,26.48 L120.672,27.938 L117.846,27.938 L117.846,30.872 L116.262,30.872 L116.262,27.938 L112.788,27.938 L112.788,26.48 L116.262,26.48 L116.262,24.554 L114.444,24.554 C114.227999,25.0460025 114.018001,25.4779981 113.814,25.85 C113.513999,25.6819992 113.088003,25.5440005 112.536,25.436 C112.44,25.4239999 112.368,25.4120001 112.32,25.4 L112.32,28.532 C112.32,29.936007 111.726006,30.6320001 110.538,30.62 C110.249999,30.62 109.914002,30.5960002 109.53,30.548 L109.53,30.494 C109.482,30.0739979 109.422,29.7500011 109.35,29.522 L108.144,29.522 Z M113.958,21.512 C113.453997,21.1279981 112.962002,20.8580008 112.482,20.702 C113.874007,19.8499957 114.647999,18.6140081 114.804,16.994 L112.878,16.994 L112.878,15.536 L120.168,15.536 L120.024,18.92 C119.976,20.3960074 119.292007,21.1280001 117.972,21.116 C117.551998,21.116 117.156002,21.0920002 116.784,21.044 C116.76,20.4679971 116.646001,19.976002 116.442,19.568 C116.826002,19.6400004 117.197998,19.676 117.558,19.676 C118.158003,19.6880001 118.47,19.3820031 118.494,18.758 L118.566,16.994 L116.37,16.994 C116.213999,18.9380097 115.410007,20.4439947 113.958,21.512 Z M107.55,17.336 C107.153998,17.9840032 106.722002,18.5839972 106.254,19.136 L108.684,19.136 L109.926,17.336 L107.55,17.336 Z M110.088,29.108 C110.580002,29.1320001 110.814,28.8800026 110.79,28.352 L110.79,26.678 L109.494,26.678 L109.494,29.072 C109.710001,29.1080002 109.907999,29.1200001 110.088,29.108 Z M109.494,23.582 L109.494,25.4 L110.79,25.4 L110.79,23.582 L109.494,23.582 Z M110.79,20.504 L109.494,20.504 L109.494,22.304 L110.79,22.304 L110.79,20.504 Z M106.884,23.582 L106.884,25.4 L108.144,25.4 L108.144,23.582 L106.884,23.582 Z M106.884,20.504 L106.884,22.304 L108.144,22.304 L108.144,20.504 L106.884,20.504 Z" id="进一步了解" fill="#FFFFFF"></path>
                    </g>
                </g>
            </g>
        </g>
    </g>
</svg>