<?xml version="1.0" encoding="UTF-8" standalone="no"?>
<svg width="277px" height="82px" viewBox="0 0 277 82" version="1.1" xmlns="http://www.w3.org/2000/svg" xmlns:xlink="http://www.w3.org/1999/xlink">
    <!-- Generator: Sketch 46 (44423) - http://www.bohemiancoding.com/sketch -->
    <title>Page 1</title>
    <desc>Created with Sketch.</desc>
    <defs></defs>
    <g id="产品站" stroke="none" stroke-width="1" fill="none" fill-rule="evenodd">
        <g id="首页_2560px" transform="translate(-792.000000, -668.000000)" fill="#231916">
            <g id="P1">
                <g id="text" transform="translate(747.000000, 660.000000)">
                    <g id="Page-1" transform="translate(0.000000, 8.000000)">
                        <path d="M55.8685697,41.5714893 C55.8685697,58.4950072 64.9841666,73.6556586 80.9951601,73.6556586 C97.1227547,73.6556586 106.238352,58.730056 106.238352,40.7488182 C106.238352,25.0002775 98.0576877,8.54685733 81.1120268,8.54685733 C64.2829669,8.54685733 55.8685697,24.1776065 55.8685697,41.5714893 M116.990081,40.2784534 C116.990081,67.5443883 100.511887,81.9998932 80.4105614,81.9998932 C59.6083018,81.9998932 44.9999734,65.7817889 44.9999734,41.8065381 C44.9999734,16.656043 60.5432348,0.202622801 81.5794933,0.202622801 C103.082953,0.202622801 116.990081,16.7735674 116.990081,40.2784534" id="Fill-1"></path>
                        <path d="M140.176195,40.454379 C142.40842,41.0418845 145.228072,41.2768867 148.635152,41.2768867 C160.971399,41.2768867 168.490472,35.2843304 168.490472,24.3567277 C168.490472,13.8991294 161.088884,8.84658197 149.810274,8.84658197 C145.345558,8.84658197 141.938478,9.19908528 140.176195,9.6690897 L140.176195,40.454379 Z M129.954955,2.26625309 C134.889347,1.44374536 141.35105,0.738738739 149.575036,0.738738739 C159.679058,0.738738739 167.080645,3.08876082 171.780066,7.31906762 C176.12703,11.0791029 178.711712,16.836657 178.711712,23.8867233 C178.711712,31.0542906 176.596972,36.6943436 172.602465,40.8068823 C167.198131,46.5644364 158.386717,49.502231 148.400181,49.502231 C145.345558,49.502231 142.525905,49.3844629 140.176195,48.7969574 L140.176195,80.5225225 L129.954955,80.5225225 L129.954955,2.26625309 Z" id="Fill-4"></path>
                        <path d="M202.230249,40.454379 C204.462474,41.0418845 207.282126,41.2768867 210.689206,41.2768867 C223.025186,41.2768867 230.544526,35.2843304 230.544526,24.3567277 C230.544526,13.8991294 223.142938,8.84658197 211.864328,8.84658197 C207.399612,8.84658197 203.992532,9.19908528 202.230249,9.6690897 L202.230249,40.454379 Z M192.009009,2.26625309 C196.943401,1.44374536 203.405104,0.738738739 211.62909,0.738738739 C221.733112,0.738738739 229.1347,3.08876082 233.83412,7.31906762 C238.181084,11.0791029 240.765766,16.836657 240.765766,23.8867233 C240.765766,31.0542906 238.651026,36.6943436 234.656519,40.8068823 C229.252185,46.5644364 220.440771,49.502231 210.454235,49.502231 C207.399612,49.502231 204.579959,49.3844629 202.230249,48.7969574 L202.230249,80.5225225 L192.009009,80.5225225 L192.009009,2.26625309 Z" id="Fill-6"></path>
                        <path d="M260.607388,41.5714893 C260.607388,58.4950072 269.74211,73.6556586 285.786695,73.6556586 C301.948126,73.6556586 311.082848,58.730056 311.082848,40.7488182 C311.082848,25.0002775 302.885021,8.54685733 285.903807,8.54685733 C269.039439,8.54685733 260.607388,24.1776065 260.607388,41.5714893 M321.857401,40.2784534 C321.857401,67.5443883 305.344369,81.9998932 285.20087,81.9998932 C264.354966,81.9998932 249.715989,65.7817889 249.715989,41.8065381 C249.715989,16.656043 265.291861,0.202622801 286.372254,0.202622801 C307.920829,0.202622801 321.857401,16.7735674 321.857401,40.2784534" id="Fill-8"></path>
                    </g>
                </g>
            </g>
        </g>
    </g>
</svg>