<?xml version="1.0" encoding="UTF-8" standalone="no"?>
<svg width="246px" height="85px" viewBox="0 0 246 85" version="1.1" xmlns="http://www.w3.org/2000/svg" xmlns:xlink="http://www.w3.org/1999/xlink">
    <!-- Generator: Sketch 46 (44423) - http://www.bohemiancoding.com/sketch -->
    <title>r11s</title>
    <desc>Created with Sketch.</desc>
    <defs></defs>
    <g id="产品站" stroke="none" stroke-width="1" fill="none" fill-rule="evenodd">
        <g id="首页_2560px" transform="translate(-1525.000000, -667.000000)" fill="#1E1E1E">
            <g id="P1">
                <g id="text" transform="translate(747.000000, 660.000000)">
                    <g id="r11s" transform="translate(778.000000, 7.000000)">
                        <path d="M21.7227985,39.7659604 C33.1363731,39.7659604 40.2545075,33.6069902 40.2545075,24.3083219 C40.2545075,13.8008762 32.5223808,9.21196036 21.3544031,9.09153472 C16.0769927,9.09153472 12.5179255,9.57447032 10.8,10.0574059 L10.8,39.7659604 L21.7227985,39.7659604 Z M0,2.69089114 C5.52258963,1.60336125 13.2542986,1 20.6180299,1 C31.9092238,1 39.3953359,3.05299009 44.5499478,7.64190588 C48.5997912,11.2649505 51.0545075,16.8201485 51.0545075,23.220792 C51.0545075,33.8486635 44.1815524,40.973505 35.4678733,43.8719406 L35.4678733,44.2340396 C41.8500522,46.4078663 45.6542986,52.3259853 47.6182388,60.6583713 C50.3177167,72.1308663 52.2816568,79.8607131 54,83 L42.8316046,83 C41.6044553,80.7053366 39.6405151,73.7013318 37.4318134,63.556807 C34.9770971,52.4468219 30.5588583,48.0983464 20.8636269,47.7366585 L10.8,47.7366585 L10.8,83 L0,83 L0,2.69089114 Z" id="Fill-1"></path>
                        <polygon id="Fill-3" points="81.1109938 11.3445534 80.8516211 11.3445534 66.2034006 19.0399671 64 10.5877151 82.4070124 1 92 1 92 83 81.1109938 83"></polygon>
                        <polygon id="Fill-5" points="121.110994 11.3445534 120.851621 11.3445534 106.203401 19.0399671 104 10.5877151 122.407012 1 132 1 132 83 121.110994 83"></polygon>
                        <path d="M182.007403,7.42199673 C174.516688,7.42199673 168.421997,13.5162719 168.421997,21.0074035 L168.421997,63.9925965 C168.421997,71.4833116 174.516688,77.5780033 182.007403,77.5780033 L224.993013,77.5780033 C232.483728,77.5780033 238.57842,71.4833116 238.57842,63.9925965 L238.57842,21.0074035 C238.57842,13.5162719 232.483728,7.42199673 224.993013,7.42199673 L182.007403,7.42199673 Z M181.251918,85 C170.08498,85 161,75.9150195 161,64.7480818 L161,20.2519182 C161,9.08498045 170.08498,0 181.251918,0 L225.748915,0 C236.915436,0 246,9.08498045 246,20.2519182 L246,64.7480818 C246,75.9150195 236.915436,85 225.748915,85 L181.251918,85 Z" id="Fill-7"></path>
                        <path d="M196.256121,29.421495 C196.256121,27.7010988 197.020707,26.1017814 198.408592,24.9179465 C199.991003,23.5678357 202.294181,22.8546322 205.068724,22.8546322 C209.653374,22.8546322 213.051216,24.1719854 214.880981,25.1041258 L216.891757,18.3850852 C214.625846,17.2622044 210.829944,16 205.21902,16 C194.939492,16 187.759672,21.8942953 187.759672,30.3341467 C187.759672,36.8993509 192.015472,41.5098799 201.15283,44.8436917 C207.914524,47.3112929 210.428608,49.722916 210.428608,53.7421495 C210.428608,58.3091399 206.735497,61.1453678 200.790399,61.1453678 C196.754514,61.1453678 192.32016,60.0063155 188.813793,58.0827393 L187,65.0190581 C189.68199,66.5250785 194.953826,68 200.189624,68 C206.18755,68 211.110879,66.4454651 214.428454,63.5035006 C217.376637,60.8895268 219,57.1800392 219,53.0579717 C219,46.0888953 215.172564,41.6579111 206.202293,38.2415833 C199.323475,35.5334832 196.256121,33.6182001 196.256121,29.421495 Z" id="Fill-9"></path>
                    </g>
                </g>
            </g>
        </g>
    </g>
</svg>